<?xml version="1.0" encoding="UTF-8" standalone="no"?>
<!DOCTYPE svg PUBLIC "-//W3C//DTD SVG 1.1//EN"
 "http://www.w3.org/Graphics/SVG/1.1/DTD/svg11.dtd">
<!-- Generated by graphviz version 2.40.1 (20161225.0304)
 -->
<!-- Title: pairwise Pages: 1 -->
<svg width="310pt" height="218pt"
 viewBox="0.00 0.00 310.34 218.00" xmlns="http://www.w3.org/2000/svg" xmlns:xlink="http://www.w3.org/1999/xlink">
<g id="graph0" class="graph" transform="scale(1 1) rotate(0) translate(4 214)">
<title>pairwise</title>
<polygon fill="#ffffff" stroke="transparent" points="-4,4 -4,-214 306.3397,-214 306.3397,4 -4,4"/>
<!-- a1 -->
<g id="node1" class="node">
<title>a1</title>
<ellipse fill="none" stroke="#000000" cx="115.3397" cy="-192" rx="113.9803" ry="18"/>
<text text-anchor="middle" x="115.3397" y="-188.3" font-family="Times,serif" font-size="14.00" fill="#000000">ImageSnippets Import Script</text>
</g>
<!-- b1 -->
<g id="node2" class="node">
<title>b1</title>
<ellipse fill="none" stroke="#000000" cx="38.3397" cy="-105" rx="32.4942" ry="18"/>
<text text-anchor="middle" x="38.3397" y="-101.3" font-family="Times,serif" font-size="14.00" fill="#000000">GloBI</text>
</g>
<!-- a1&#45;&gt;b1 -->
<g id="edge1" class="edge">
<title>a1&#45;&gt;b1</title>
<path fill="none" stroke="#000000" d="M99.3852,-173.9735C87.789,-160.8713 71.9793,-143.0085 59.3546,-128.7442"/>
<polygon fill="#000000" stroke="#000000" points="61.9641,-126.4115 52.7155,-121.2429 56.7223,-131.0509 61.9641,-126.4115"/>
<text text-anchor="middle" x="103.8397" y="-144.8" font-family="Times,serif" font-size="14.00" fill="#000000">uses (2)</text>
</g>
<!-- c1 -->
<g id="node3" class="node">
<title>c1</title>
<ellipse fill="none" stroke="#000000" cx="194.3397" cy="-105" rx="105.8812" ry="18"/>
<text text-anchor="middle" x="194.3397" y="-101.3" font-family="Times,serif" font-size="14.00" fill="#000000">ImageSnippets TripleStore</text>
</g>
<!-- a1&#45;&gt;c1 -->
<g id="edge2" class="edge">
<title>a1&#45;&gt;c1</title>
<path fill="none" stroke="#000000" d="M131.7085,-173.9735C143.0425,-161.4919 158.2994,-144.6899 170.9172,-130.7944"/>
<polygon fill="#000000" stroke="#000000" points="173.8604,-132.7595 177.9918,-123.0034 168.6781,-128.0538 173.8604,-132.7595"/>
<text text-anchor="middle" x="230.8397" y="-144.8" font-family="Times,serif" font-size="14.00" fill="#000000">add image annotations (3)</text>
</g>
<!-- d1 -->
<g id="node4" class="node">
<title>d1</title>
<ellipse fill="none" stroke="#000000" cx="116.3397" cy="-18" rx="116.1796" ry="18"/>
<text text-anchor="middle" x="116.3397" y="-14.3" font-family="Times,serif" font-size="14.00" fill="#000000">iNaturalist observation record</text>
</g>
<!-- b1&#45;&gt;d1 -->
<g id="edge3" class="edge">
<title>b1&#45;&gt;d1</title>
<path fill="none" stroke="#000000" d="M53.0109,-88.636C64.3303,-76.0105 80.2023,-58.3071 93.2245,-43.7823"/>
<polygon fill="#000000" stroke="#000000" points="96.0493,-45.8746 100.1188,-36.0925 90.8373,-41.2018 96.0493,-45.8746"/>
<text text-anchor="middle" x="112.8397" y="-57.8" font-family="Times,serif" font-size="14.00" fill="#000000">indexes (1)</text>
</g>
<!-- c1&#45;&gt;d1 -->
<g id="edge4" class="edge">
<title>c1&#45;&gt;d1</title>
<path fill="none" stroke="#000000" d="M178.178,-86.9735C166.9876,-74.4919 151.9237,-57.6899 139.4657,-43.7944"/>
<polygon fill="#000000" stroke="#000000" points="141.7621,-41.1127 132.4806,-36.0034 136.5501,-45.7855 141.7621,-41.1127"/>
<text text-anchor="middle" x="189.8397" y="-57.8" font-family="Times,serif" font-size="14.00" fill="#000000">links to (4)</text>
</g>
</g>
</svg>
