<?xml version="1.0" encoding="UTF-8" standalone="no"?>
<!DOCTYPE svg PUBLIC "-//W3C//DTD SVG 1.1//EN"
 "http://www.w3.org/Graphics/SVG/1.1/DTD/svg11.dtd">
<!-- Generated by graphviz version 2.40.1 (20161225.0304)
 -->
<!-- Title: pairwise Pages: 1 -->
<svg width="352pt" height="305pt"
 viewBox="0.00 0.00 351.94 305.00" xmlns="http://www.w3.org/2000/svg" xmlns:xlink="http://www.w3.org/1999/xlink">
<g id="graph0" class="graph" transform="scale(1 1) rotate(0) translate(4 301)">
<title>pairwise</title>
<polygon fill="#ffffff" stroke="transparent" points="-4,4 -4,-301 347.9406,-301 347.9406,4 -4,4"/>
<!-- a1 -->
<g id="node1" class="node">
<title>a1</title>
<ellipse fill="none" stroke="#000000" cx="105.9406" cy="-279" rx="83.3857" ry="18"/>
<text text-anchor="middle" x="105.9406" y="-275.3" font-family="Times,serif" font-size="14.00" fill="#000000">GloBI Import Script</text>
</g>
<!-- b1 -->
<g id="node2" class="node">
<title>b1</title>
<ellipse fill="none" stroke="#000000" cx="105.9406" cy="-18" rx="105.8812" ry="18"/>
<text text-anchor="middle" x="105.9406" y="-14.3" font-family="Times,serif" font-size="14.00" fill="#000000">ImageSnippets TripleStore</text>
</g>
<!-- a1&#45;&gt;b1 -->
<g id="edge1" class="edge">
<title>a1&#45;&gt;b1</title>
<path fill="none" stroke="#000000" d="M105.9406,-260.647C105.9406,-215.8139 105.9406,-100.4607 105.9406,-46.5557"/>
<polygon fill="#000000" stroke="#000000" points="109.4407,-46.3327 105.9406,-36.3327 102.4407,-46.3328 109.4407,-46.3327"/>
<text text-anchor="middle" x="127.4406" y="-144.8" font-family="Times,serif" font-size="14.00" fill="#000000">uses (2)</text>
</g>
<!-- c1 -->
<g id="node3" class="node">
<title>c1</title>
<ellipse fill="none" stroke="#000000" cx="211.9406" cy="-192" rx="79.0865" ry="18"/>
<text text-anchor="middle" x="211.9406" y="-188.3" font-family="Times,serif" font-size="14.00" fill="#000000">GloBI search index</text>
</g>
<!-- a1&#45;&gt;c1 -->
<g id="edge2" class="edge">
<title>a1&#45;&gt;c1</title>
<path fill="none" stroke="#000000" d="M127.3913,-261.3943C143.1956,-248.4228 164.8847,-230.6213 182.3383,-216.2962"/>
<polygon fill="#000000" stroke="#000000" points="185.0125,-218.6293 190.5218,-209.5796 180.5715,-213.2184 185.0125,-218.6293"/>
<text text-anchor="middle" x="254.9406" y="-231.8" font-family="Times,serif" font-size="14.00" fill="#000000">add species interaction claim (3)</text>
</g>
<!-- d1 -->
<g id="node4" class="node">
<title>d1</title>
<ellipse fill="none" stroke="#000000" cx="226.9406" cy="-105" rx="108.5808" ry="18"/>
<text text-anchor="middle" x="226.9406" y="-101.3" font-family="Times,serif" font-size="14.00" fill="#000000">Manually Annotated Image</text>
</g>
<!-- c1&#45;&gt;d1 -->
<g id="edge4" class="edge">
<title>c1&#45;&gt;d1</title>
<path fill="none" stroke="#000000" d="M215.0486,-173.9735C217.0799,-162.1918 219.775,-146.5607 222.0858,-133.1581"/>
<polygon fill="#000000" stroke="#000000" points="225.5865,-133.4527 223.8366,-123.0034 218.6883,-132.2633 225.5865,-133.4527"/>
<text text-anchor="middle" x="250.4406" y="-144.8" font-family="Times,serif" font-size="14.00" fill="#000000">links to (4)</text>
</g>
<!-- d1&#45;&gt;b1 -->
<g id="edge3" class="edge">
<title>d1&#45;&gt;b1</title>
<path fill="none" stroke="#000000" d="M202.4544,-87.3943C184.0856,-74.1869 158.7528,-55.9724 138.6501,-41.5184"/>
<polygon fill="#000000" stroke="#000000" points="140.5527,-38.5756 130.3903,-35.5796 136.4663,-44.2591 140.5527,-38.5756"/>
<text text-anchor="middle" x="193.9406" y="-57.8" font-family="Times,serif" font-size="14.00" fill="#000000">add (1)</text>
</g>
</g>
</svg>
