<?xml version="1.0" encoding="UTF-8" standalone="no"?>
<!DOCTYPE svg PUBLIC "-//W3C//DTD SVG 1.1//EN"
 "http://www.w3.org/Graphics/SVG/1.1/DTD/svg11.dtd">
<!-- Generated by graphviz version 2.40.1 (20161225.0304)
 -->
<!-- Title: pairwise Pages: 1 -->
<svg width="652pt" height="218pt"
 viewBox="0.00 0.00 652.24 218.00" xmlns="http://www.w3.org/2000/svg" xmlns:xlink="http://www.w3.org/1999/xlink">
<g id="graph0" class="graph" transform="scale(1 1) rotate(0) translate(4 214)">
<title>pairwise</title>
<polygon fill="#ffffff" stroke="transparent" points="-4,4 -4,-214 648.2428,-214 648.2428,4 -4,4"/>
<!-- a1 -->
<g id="node1" class="node">
<title>a1</title>
<ellipse fill="none" stroke="#000000" cx="81.2428" cy="-105" rx="81.4863" ry="18"/>
<text text-anchor="middle" x="81.2428" y="-101.3" font-family="Times,serif" font-size="14.00" fill="#000000">Collection Manager</text>
</g>
<!-- b1 -->
<g id="node2" class="node">
<title>b1</title>
<ellipse fill="none" stroke="#000000" cx="279.2428" cy="-105" rx="55.7903" ry="18"/>
<text text-anchor="middle" x="279.2428" y="-101.3" font-family="Times,serif" font-size="14.00" fill="#000000">EMu Private</text>
</g>
<!-- a1&#45;&gt;b1 -->
<g id="edge1" class="edge">
<title>a1&#45;&gt;b1</title>
<path fill="none" stroke="#000000" d="M162.6341,-105C179.3459,-105 196.7495,-105 212.8564,-105"/>
<polygon fill="#000000" stroke="#000000" points="213.2334,-108.5001 223.2334,-105 213.2333,-101.5001 213.2334,-108.5001"/>
<text text-anchor="middle" x="192.9167" y="-111.8" font-family="Times,serif" font-size="14.00" fill="#000000">uses (1)</text>
</g>
<!-- c1 -->
<g id="node3" class="node">
<title>c1</title>
<ellipse fill="none" stroke="#000000" cx="492.2428" cy="-105" rx="68.4888" ry="18"/>
<text text-anchor="middle" x="492.2428" y="-101.3" font-family="Times,serif" font-size="14.00" fill="#000000">Symbiota Portal</text>
</g>
<!-- b1&#45;&gt;c1 -->
<g id="edge2" class="edge">
<title>b1&#45;&gt;c1</title>
<path fill="none" stroke="#000000" d="M335.206,-105C359.1451,-105 387.519,-105 413.5185,-105"/>
<polygon fill="#000000" stroke="#000000" points="413.7309,-108.5001 423.7309,-105 413.7308,-101.5001 413.7309,-108.5001"/>
<text text-anchor="middle" x="379.5683" y="-111.8" font-family="Times,serif" font-size="14.00" fill="#000000">publishes (2)</text>
</g>
<!-- d1 -->
<g id="node4" class="node">
<title>d1</title>
<ellipse fill="none" stroke="#000000" cx="438.2428" cy="-18" rx="27" ry="18"/>
<text text-anchor="middle" x="438.2428" y="-14.3" font-family="Times,serif" font-size="14.00" fill="#000000">IPT</text>
</g>
<!-- b1&#45;&gt;d1 -->
<g id="edge3" class="edge">
<title>b1&#45;&gt;d1</title>
<path fill="none" stroke="#000000" d="M307.6688,-89.4461C336.0404,-73.922 379.4619,-50.1631 408.3418,-34.3609"/>
<polygon fill="#000000" stroke="#000000" points="410.0773,-37.4011 417.1699,-29.5305 406.7172,-31.2602 410.0773,-37.4011"/>
<text text-anchor="middle" x="404.7428" y="-57.8" font-family="Times,serif" font-size="14.00" fill="#000000">publishes (3)</text>
</g>
<!-- e1 -->
<g id="node5" class="node">
<title>e1</title>
<ellipse fill="none" stroke="#000000" cx="544.2428" cy="-192" rx="32.4942" ry="18"/>
<text text-anchor="middle" x="544.2428" y="-188.3" font-family="Times,serif" font-size="14.00" fill="#000000">GloBI</text>
</g>
<!-- e1&#45;&gt;c1 -->
<g id="edge5" class="edge">
<title>e1&#45;&gt;c1</title>
<path fill="none" stroke="#000000" d="M533.064,-174.9C529.2474,-168.958 524.997,-162.2237 521.2428,-156 516.5539,-148.2269 511.6149,-139.6846 507.1683,-131.851"/>
<polygon fill="#000000" stroke="#000000" points="510.1779,-130.0623 502.219,-123.069 504.0796,-133.4991 510.1779,-130.0623"/>
<text text-anchor="middle" x="551.7428" y="-144.8" font-family="Times,serif" font-size="14.00" fill="#000000">links to (5)</text>
</g>
<!-- e1&#45;&gt;d1 -->
<g id="edge4" class="edge">
<title>e1&#45;&gt;d1</title>
<path fill="none" stroke="#000000" d="M564.976,-177.8354C571.8036,-171.9599 578.5802,-164.5151 582.2428,-156 590.566,-136.6495 581.1689,-102.331 569.2428,-87 545.1367,-56.0117 503.165,-37.439 473.2262,-27.4975"/>
<polygon fill="#000000" stroke="#000000" points="474.1673,-24.1244 463.5775,-24.4515 472.0599,-30.7997 474.1673,-24.1244"/>
<text text-anchor="middle" x="613.7428" y="-101.3" font-family="Times,serif" font-size="14.00" fill="#000000">indexes (4)</text>
</g>
</g>
</svg>
