<?xml version="1.0" encoding="UTF-8" standalone="no"?>
<svg
   xmlns:dc="http://purl.org/dc/elements/1.1/"
   xmlns:cc="http://creativecommons.org/ns#"
   xmlns:rdf="http://www.w3.org/1999/02/22-rdf-syntax-ns#"
   xmlns:svg="http://www.w3.org/2000/svg"
   xmlns="http://www.w3.org/2000/svg"
   id="svg10"
   version="1.1"
   viewBox="0 -1 3.9173731 15.56448"
   width="106.83744"
   height="103.7632">
  <metadata
     id="metadata16">
    <rdf:RDF>
      <cc:Work
         rdf:about="">
        <dc:format>image/svg+xml</dc:format>
        <dc:type
           rdf:resource="http://purl.org/dc/dcmitype/StillImage" />
        <dc:title></dc:title>
      </cc:Work>
    </rdf:RDF>
  </metadata>
  <defs
     id="defs14" />
  <path
     style="fill:none;stroke:#09af8a"
     id="path2"
     d="m -4.5444444,9.5 h 13 a 1,1 0 0 0 1,-1 v -9 h -13 v 9 a 1,1 0 0 1 -2,0 v -8 h 2" />
  <path
     style="stroke:#09af8a"
     id="path4"
     d="m 3.9555556,1.5 h 4 m -4,2 h 4 m -4,2 h 4 m -4,2 h 4"
     fill="transparent" />
  <path
     style="fill:none;stroke:#de3030"
     id="path6"
     d="m -2.0444444,1.5 h 4.5 v 4 h -4 V 2 m -0.5,5.5 h 5" />
  <path
     d="m -4.8266845,11.05416 c -0.6260799,0 -1.0319999,0.30272 -1.0319999,0.78432 0,0.84624 1.2487199,0.63984 1.2487199,0.95288 0,0.086 -0.07568,0.12384 -0.19264,0.12384 -0.24424,0 -0.6707999,-0.16856 -0.9184799,-0.37496 l -0.29584,0.59856 c 0.31992,0.24424 0.7877599,0.38528 1.2074399,0.38528 0.54352,0 1.0148,-0.23736 1.0148,-0.774 0,-0.87376 -1.24872,-0.68456 -1.24872,-0.98728 0,-0.07224 0.05848,-0.09976 0.14792,-0.09976 0.20984,0 0.5848,0.14792 0.82904,0.28208 l 0.28896,-0.60544 c -0.27176,-0.172 -0.66736,-0.28552 -1.0492,-0.28552 z"
     style="font-style:normal;font-variant:normal;font-weight:normal;font-stretch:normal;font-size:3.43999982px;font-family:Trueno;-inkscape-font-specification:Trueno;fill:#506aa7"
     id="path855" />
  <path
     d="m -2.4012695,11.06448 c -0.7568,0 -1.3072,0.516 -1.3072,1.22464 0,0.71896 0.53664,1.24528 1.27624,1.24528 0.37152,0 0.7808799,-0.1892 1.0491999,-0.4816 l -0.46096,-0.49192 c -0.1582399,0.16856 -0.3749599,0.2752 -0.5469599,0.2752 -0.28896,0 -0.4988,-0.23392 -0.4988,-0.55728 0,-0.31992 0.20984,-0.5504 0.4988,-0.5504 0.18576,0 0.40248,0.12728 0.5469599,0.32336 l 0.46096,-0.54696 c -0.24768,-0.26832 -0.6501599,-0.44032 -1.0182399,-0.44032 z"
     style="font-style:normal;font-variant:normal;font-weight:normal;font-stretch:normal;font-size:3.43999982px;font-family:Trueno;-inkscape-font-specification:Trueno;fill:#506aa7"
     id="path857" />
  <path
     d="M 1.1195704,13.5 V 11.08856 H 0.32149045 v 0.93568 H -0.42498951 V 11.08856 H -1.2230695 V 13.5 h 0.79807999 V 12.62968 H 0.32149045 V 13.5 Z"
     style="font-style:normal;font-variant:normal;font-weight:normal;font-stretch:normal;font-size:3.43999982px;font-family:Trueno;-inkscape-font-specification:Trueno;fill:#506aa7"
     id="path859" />
  <path
     d="M 5.0171978,12.83608 V 11.08856 H 4.2191179 V 13.5 h 1.8025599 v -0.66392 z"
     style="font-style:normal;font-variant:normal;font-weight:normal;font-stretch:normal;font-size:3.43999982px;font-family:Trueno;-inkscape-font-specification:Trueno;fill:#506aa7"
     id="path863" />
  <path
     d="M 7.0261032,13.5 V 11.08856 H 6.2280233 V 13.5 Z"
     style="font-style:normal;font-variant:normal;font-weight:normal;font-stretch:normal;font-size:3.43999982px;font-family:Trueno;-inkscape-font-specification:Trueno;fill:#506aa7"
     id="path865" />
  <path
     d="M 9.0110913,13.15944 9.1314912,13.5 h 0.84968 L 9.0007713,11.08856 h -0.81872 L 7.1638113,13.5 h 0.81872 l 0.12384,-0.34056 z m -0.19608,-0.57104 h -0.50224 l 0.25456,-0.7052 z"
     style="font-style:normal;font-variant:normal;font-weight:normal;font-stretch:normal;font-size:3.43999982px;font-family:Trueno;-inkscape-font-specification:Trueno;fill:#506aa7"
     id="path867" />
  <path
     style="fill:none;stroke:#de3030;stroke-width:0.5"
     id="path6-7"
     d="m 1.41843,11.31448 h 2.25 v 2 h -2 v -1.75 m -0.25,2.75 h 2.5" />
</svg>
