<svg xmlns="http://www.w3.org/2000/svg" viewBox="0 0 133.2 131.4">
  <defs>
    <style>
      .cls-1 {
        fill: #e98a00;
      }

      .cls-2 {
        fill: #99b400;
      }

      .cls-3 {
        fill: #ef3f64;
      }
    </style>
  </defs>
  <g id="Layer_2" data-name="Layer 2">
    <g id="Layer_5" data-name="Layer 5">
      <path class="cls-1" d="M20.9,107.2c-1.6-.1-9.3,3.6-14.3,1.4-2.6-4.1.7-7.1,4.7-8.5C9.1,96.4,2.9,101.7.7,97.3c-2.8-7.2,3-14.1,11.5-11,7,12.9,23.9,25.5,44.8,25.9-18.9-2.7-38.8-16.6-45.8-30.3,6.9-4.4,10.6-6.6,16.7-2.5.6,4,1.4,4.4-2.3,8.2,3.2-.2,6.1-4.1,9.5-1.1,1.1,2.4,1,4.3-2.2,7.4,5.8.6,9.3-7.2,15.9-4.1-.5,3.1-1.1,9-5.2,10.4,6-.9,10.2-5.9,15.4-7.7,3.9,1,.1,7.2-2,9.8,4.1-3.4,8.5-5.9,14.2-8.9,3.5,1,4,8.1-1.3,12.2.5-3.5,4-2.2,10.7-.3-1.6,8.6-8,11.9-13.1,9.7-6,2.5,6.8,8.6-2.1,12.9-15.9,3-13.9-6-18.6-8.6-3.3,4.6,0,9.9-11.9,12.1-11.3-5.1-2.8-9.5-2.2-15.4-6.7.5-5.7,5.6-15.1,4.5-6.9-6.6-1.3-8,3.3-13.3"/>
      <path class="cls-2" d="M116.1,33.9c3.1,33-11.9,36.5-14.5,78.1-16.9-8.5-19.8-26.9-11.3-48.4,8.4-24.3,18-24.9,20.3-47.5,15.3,16.2,23.2,23.4,22.5,47s-11.5,36-21.4,48.6c-2.8-20.6.6-28.7,3.9-39.5s5.8-23.7.5-38.3"/>
      <path class="cls-3" d="M47.8,0c8.1,9.7,6.7,18.9,6.7,28.3,9.6-6.2,3.6-17.2,10.8-21s13.1,4.3,19.4,7.3c-2.9,6.7-17.4,18.6-25.5,20.3,5.3,7.9,18.6-3.3,24.5,2.5s-1.6,15.4-3.6,23.8c-9.3.5-21.3-9.7-27.7-20.2-5.9,8.3,6.3,19.4.7,26.2s-13.8,1.9-21.6.7c-4.8-11.8,7.7-22.3,13.8-31.6-7.6-2.7-16.5,9.1-24.1,11.1-.7-1.3-1.7-1.6-2.6-.9C3.2,24.2,32.6,17.7,46.6,29,45.3,20.3,36.3,19.8,30,14.5,28.4,6.8,41.7,2.7,47.8,0"/>
    </g>
  </g>
</svg>
