<!-- Generator: Adobe Illustrator 19.1.0, SVG Export Plug-In . SVG Version: 6.00 Build 0)  -->
<svg xmlns:rdf="http://www.w3.org/1999/02/22-rdf-syntax-ns#" xmlns="http://www.w3.org/2000/svg" xml:space="preserve" height="100%" width="100%" version="1.1" y="0px" x="0px" xmlns:cc="http://creativecommons.org/ns#" xmlns:dc="http://purl.org/dc/elements/1.1/" viewBox="0 0 411.8 291.7"><defs>
	</defs><metadata><rdf:RDF><cc:Work rdf:about=""><dc:format>image/svg+xml</dc:format><dc:type rdf:resource="http://purl.org/dc/dcmitype/StillImage"/><dc:title/></cc:Work></rdf:RDF></metadata>
<style type="text/css">
	.st0{fill:#FFFFFF;}
	.st1{fill:none;}
	.st2{fill:#A4DBDD;}
	.st3{fill:#3FB48B;}
	.st4{fill:#78CAB8;}
	.st5{fill:#1F3C1F;}
</style>
<g transform="translate(-9.5,-45.7)">
	<path style="fill:#ffffff;" class="st0" d="M349.6,141.3h-21.6c-9.4-54.3-56.7-95.6-113.7-95.6-24.9,0-48,7.9-66.9,21.4-9.3-14-16.8-7.3-20,2.7-2.8,8.7-0.6,14.7,0.6,17-80,60.9-20.2,141.6-20.2,141.6,5.2-0.4,9.8,0,13.2,0.4,21,28.8,55,47.6,93.4,47.6,63.7,0,115.4-51.7,115.4-115.4v-0.6l19.8-19.1z"/>
	<g>
		<path style="fill:none;" class="st1" d="m285.9,141.6-0.2,0.3c0.1-0.1,0.2-0.2,0.4-0.3,0.7-1,1.5-1.9,2.4-2.7-1.7,1.5-2.6,2.6-2.6,2.7z"/>
		<path style="fill:none;" class="st1" d="m243.2,75.3c0.1-0.3,0-0.6-0.2-0.7-5-4-12.9-2.5-16-1.6v-2.3c0-0.7-0.7-1.2-1.4-0.9l-2.5,1.1c-0.5-1.9-1.8-5.8-4.3-9-1.4-1.8-3.2-3.4-5.4-4.2-0.3-0.1-0.5,0-0.7,0.2-0.3,0.4-0.7,1.5-0.4,3.6,0.1,1.1,0.4,2.4,1,4,0.1,0.2,0.2,0.4,0.4,0.6,0.5,0.5,1.8,1.5,3.1,2-1.2-0.2-3-0.4-3.3,0.3-0.4,1.1,2.7,6.9,4.9,7,0.7,0,1.4-0.3,2.1-0.7l-0.3,0.4-0.2,0.9-1,4.7c-0.2,0.9,0.9,1.5,1.6,0.8l4.3-4.2c0,0.8,0.1,1.6,0.5,2.2,1.2,1.8,7.8,1.6,8.6,0.6,0.4-0.6-0.5-1.9-1.3-2.8l-0.1-0.1,0.1,0.1h0.1c1.1,0.8,2.5,1.3,3.1,1.5,0.2,0.1,0.5,0.1,0.7,0,0.8-0.2,1.4-0.3,2-0.5h0.1c3.2-1.1,4.2-2.3,4.5-3z"/>
		<path style="fill:none;" class="st1" d="m149.7,242.1c0.9-1.3,1.9-2.6,3-3.8-2,2.2-3.1,3.8-3.2,3.9l-0.2,0.3c0.2-0.2,0.3-0.3,0.4-0.4z"/>
		<path style="fill:none;" class="st1" d="m212.4,94.1c36.2,0.7,62.2,10.7,77.7,19,17,9.1,25.4,18.2,25.5,18.3l0.2,0.3c0-0.1-0.1-0.2-0.2-0.3-4.5-4.8-10.1-8.8-15.5-12.4-14.4-9.4-30.7-16-47.4-19.9-13.2-3.2-26.7-4.7-40.3-5,0.5-2.2,1.3-4.7,3.1-5.9,0.1,0,0.1-0.1,0.2-0.2l-0.3,0.1c-1.6,0.8-2.6,4.1-3,6z"/>
		<path style="fill:none;" class="st1" d="m293.3,135c6.4-4,14.3-5.1,21.7-2.3,0.1,0,0.2,0.1,0.3,0.1l-0.4-0.2c-9-3.6-16.5-1-21.6,2.4z"/>
		<path style="fill:none;" class="st1" d="m278.3,92.1,0,0c0.2,0.2,0.5,0.4,0.8,0.5,1,0.2,3-1.9,2.9-2.4,0-0.3-0.7-0.4-1.3-0.5,0.6-0.1,1.2-0.3,1.4-0.5,0.1,0,0.2-0.1,0.2-0.2,0.7-1.1,1-1.8,1.1-2.3,0.1-0.4,0-0.7,0-0.9,0-0.1-0.2-0.2-0.3-0.2-0.3,0-0.6,0.1-0.9,0.2-2.4,0.7-4.1,3.1-4.7,4.2l-0.7-0.7c-0.2-0.2-0.6-0.2-0.7,0.2l-0.4,1.1c-1-0.6-3.7-2-6.2-1.5-0.3,0.1-0.6,0.1-0.9,0.3-0.1,0-0.2,0.2-0.2,0.3,0,0.4,0.4,1.2,2.5,2.3,0.1,0,0.2,0.1,0.3,0.1,0.3,0,0.9,0,1.5-0.3-0.4,0.3-1,0.7-0.9,1.1,0.2,0.5,3,1.4,3.7,0.7,0.2-0.2,0.3-0.4,0.4-0.7v0.1l1.3,2.1c0.2,0.4,0.7,0.2,0.7-0.2v-1l0.4-1.8z"/>
		<path style="fill:none;" class="st1" d="m254.3,70.5c-0.4,0.5,0.3,4.2,1.4,4.6,0.3,0.1,0.8,0.1,1.2,0l-0.2,0.2-1.6,2.9c-0.3,0.5,0.2,1,0.7,0.7l3-1.5c-0.1,0.4-0.2,0.8-0.1,1.2,0.4,1.2,4,2.2,4.5,1.8,0.4-0.2,0-1.3-0.3-2,0.4,0.7,1.2,1.3,1.5,1.6,0.1,0.1,0.3,0.2,0.4,0.2,3,0.3,4-0.4,4.3-0.7,0.1-0.1,0.1-0.3,0-0.4-2-3-6.6-3.6-8.4-3.7l0.4-1.2c0.1-0.4-0.2-0.8-0.6-0.7l-1.5,0.2v-1.3c-0.1-2.2-0.6-5.7-3-7.5-0.1-0.1-0.3-0.1-0.4,0-0.4,0.3-1.1,1.2-1.1,4.2,0,0.1,0,0.3,0.1,0.4,0.2,0.4,0.7,1.1,1.3,1.6-0.4-0.2-0.9-0.5-1.3-0.5,0-0.3-0.2-0.2-0.3-0.1z"/>
		<path style="fill:#a4dbdd;" class="st2" d="m322.2,191.2c-20.9,42.9-61.7,74.3-110.3,82.3-13.2-0.2-22.4-4.1-34.1-8.5,12.3,4.7,22.3,8.5,36.3,8.5,52.1,0,95.9-35.4,108.7-83.4,0,0-20.8,48.6-74.1,57.9,21-3.7,33.5-15.2,45.9-25.3,16.2-13.2,25.3-27.6,27.6-31.5z"/>
		<path style="fill:#3fb48b;" class="st3" d="m154.3,256.5c-0.1-0.1-0.2-0.1-0.3-0.2,0.2,0.1,0.3,0.1,0.3,0.2z"/>
		<path style="fill:#3fb48b;" class="st3" d="m159.2,259.4c0.4,0.2,0.9,0.5,1.3,0.7-0.4-0.2-0.8-0.5-1.3-0.7z"/>
		<path style="fill:#3fb48b;" class="st3" d="m156.4,257.8c-0.2-0.1-0.5-0.3-0.7-0.4,0.3,0.1,0.5,0.2,0.7,0.4z"/>
		<path style="fill:#3fb48b;" class="st3" d="m158.6,259c-0.4-0.2-0.7-0.4-1.1-0.6,0.3,0.2,0.7,0.4,1.1,0.6z"/>
		<path style="fill:#3fb48b;" class="st3" d="m241.5,246.5c0.1,0,0.3,0,0.4-0.1-0.2,0.1-0.3,0.1-0.4,0.1z"/>
		<path style="fill:#3fb48b;" class="st3" d="m244.2,246.1h0.2-0.2z"/>
		<path style="fill:#3fb48b;" class="st3" d="m236,247.2h0.5-0.5z"/>
		<path style="fill:#3fb48b;" class="st3" d="m238.7,246.9c0.2,0,0.3,0,0.5-0.1-0.1,0.1-0.3,0.1-0.5,0.1z"/>
		<path style="fill:#78cab8;" class="st4" d="m322.2,191.2c-2.3,3.9-11.4,18.2-27.6,31.5-26.9,25.2-62.9,40.6-102.7,40.6-10.8,0-21.2-1.2-31.3-3.3,0.1,0.1,0.2,0.1,0.3,0.2,0.5,0.3,1,0.5,1.4,0.8,0.3,0.2,0.7,0.3,1,0.5,0.4,0.2,0.8,0.4,1.1,0.6,0.6,0.3,1.1,0.5,1.7,0.8,0.2,0.1,0.4,0.2,0.6,0.3,0.9,0.4,1.7,0.8,2.6,1.2h0.1c0.8,0.4,1.6,0.7,2.5,1,0.8,0.3,1.5,0.6,2.3,0.9,0.1,0,0.1,0,0.2,0.1,11.7,4.4,24.3,6.9,37.5,7.2,48.6-8.1,89.4-39.5,110.3-82.4z"/>
		<path style="fill:#78cab8;" class="st4" d="m160.5,260.1c0.1,0.1,0.2,0.1,0.3,0.2-0.1-0.1-0.2-0.2-0.3-0.2z"/>
		<path style="fill:#78cab8;" class="st4" d="m174.3,266.4c-0.1,0-0.1,0-0.2-0.1,0.1,0,0.2,0.1,0.2,0.1z"/>
		<path style="fill:#78cab8;" class="st4" d="m171.8,265.4c-0.8-0.3-1.7-0.7-2.5-1,0.9,0.3,1.7,0.7,2.5,1z"/>
		<path style="fill:#a4dbdd;" class="st2" d="m212.2,61.5c-0.3-2.1,0.1-3.1,0.4-3.6,0.2-0.2,0.4-0.3,0.7-0.2,2.2,0.8,4,2.4,5.4,4.2,5.1,1.4,10.9,3.1,16.3,4.3,6.7,1.5,13.8,3.6,19.8,4.2,0.4,0.1,0.9,0.3,1.3,0.5-0.6-0.5-1.1-1.2-1.3-1.6-0.1-0.1-0.1-0.3-0.1-0.4,0-3,0.7-3.9,1.1-4.2,0.1-0.1,0.3-0.1,0.4,0,2.4,1.8,2.9,5.3,3,7.5,3.9,2,8.2,4.6,12.2,6.9,3.8,2.2,7.6,4.7,11.1,6.7,0.3-0.1,0.6-0.1,0.9-0.2,0.1,0,0.2,0.1,0.3,0.2,0.1,0.2,0.1,0.4,0,0.9,2.2,4.3,10.7,12,16.2,18.3,10,11.4,19.1,24.2,25.3,38-8.8-53.6-55.2-94.5-111.2-94.5-16.1,0-31.4,3.4-45.2,9.5,0.7,1.8-1,5.5-1.3,6.9-0.3,1.2-0.4,2.4-0.6,3.6,6.5-0.3,13.3-2.2,20.3-3.4,6.8-1.2,14.2-2.7,21.3-2.7,1.3,0,2.4-1,3.7-0.9z"/>
		<path style="fill:#78cab8;" class="st4" d="m232.4,77.1l0.1,0.1-0.1-0.1z"/>
		<path style="fill:#78cab8;" class="st4" d="m283.6,86.7c-0.1,0.5-0.4,1.3-1.1,2.3-0.1,0.1-0.2,0.2-0.2,0.2-0.3,0.1-0.9,0.4-1.4,0.5,0.5,0.1,1.2,0.2,1.3,0.5,0,0.5-2,2.6-2.9,2.4-0.3-0.1-0.6-0.3-0.8-0.6v3.3c20,12.1,36.2,28.2,46.7,49.2,0,0,0.1-0.1,0.3-0.2-0.1-0.4-0.1-0.9-0.2-1.3-8.4-22.5-23-42-41.7-56.3z"/>
		<path style="fill:#78cab8;" class="st4" d="m225.5,69.7c0.7-0.3,1.4,0.2,1.4,0.9v2.3c3.1-0.8,11.1-2.4,16,1.6,0.2,0.2,0.3,0.5,0.2,0.7-0.3,0.7-1.3,1.9-4.7,2.9,10.6,3.5,21,7.8,31.1,10.8,2.5-0.5,5.2,0.9,6.2,1.5l0.4-1.1c0.1-0.3,0.5-0.4,0.7-0.2l0.7,0.7c0.7-1.1,2.4-3.5,4.7-4.2-7.2-5.3-15-9.9-23.3-13.6v1.3l1.5-0.2c0.4,0,0.7,0.4,0.6,0.7l-0.4,1.2c1.8,0.1,6.4,0.7,8.4,3.7,0.1,0.1,0.1,0.3,0,0.4-0.3,0.4-1.3,1-4.3,0.7-0.1,0-0.3-0.1-0.4-0.2-0.4-0.3-1.1-0.9-1.5-1.6,0.3,0.6,0.7,1.7,0.3,2-0.5,0.4-4.1-0.6-4.5-1.8-0.1-0.3,0-0.7,0.1-1.2l-3,1.5c-0.5,0.2-1-0.3-0.7-0.7l1.6-2.9,0.2-0.2c-0.4,0.1-0.9,0.1-1.2,0-1.2-0.5-1.9-4.1-1.4-4.6,0.1-0.1,0.3-0.1,0.5-0.1-11.3-4.5-23.4-7.5-36-8.5,2.5,3.2,3.8,7.1,4.3,9l2.5-0.8z"/>
		<path style="fill:#78cab8;" class="st4" d="m219.9,75.9,0.2-0.9,0.3-0.4c-0.7,0.4-1.4,0.7-2.1,0.7-2.2-0.2-5.3-6-4.9-7,0.3-0.7,2.1-0.5,3.3-0.3-1.3-0.5-2.6-1.5-3.1-2-0.2-0.2-0.3-0.4-0.4-0.6-0.6-1.7-0.9-3-1-4-1.3,0-2.5-0.1-3.8-0.1-14.6,0-28.5,2.5-41.5,7.1-0.3,2.4-0.5,4.7-1.2,7-1.2,3.8-3.4,7.5-6.3,10.5,1.5-0.1,3.1-0.1,4.6,0.1,15.3-5.3,32-10.1,49.7-10.1,2.1,0.1,4.2-0.1,6.2,0z"/>
		<path style="fill:#a4dbdd;" class="st2" d="m157.3,63.9c-3.3,1.9-6.4,4-9.5,6.2,1,1.8,1.7,3.7,2.3,5.2,2.1-3.9,4.4-8,7.2-11.4z"/>
		<g>
			<path style="fill:#3fb48b;" class="st3" d="m241.9,246.5c-0.1,0-0.3,0-0.4,0.1-0.7,0.1-1.5,0.2-2.2,0.3-0.2,0-2,0.2-2.7,0.3-0.2,0-2.3,0.2-3.2,0.3h-0.1c-1,0.1-1.9,0.1-2.9,0.2,0,0-2.1,0.1-3.1,0.1h-3.2c-0.4,0-6-0.2-6.1-0.2-17.4-1-37.5-5.8-55.9-18-3.9,3-7.2,6.3-9.4,8.8-1.1,1.3-3,3.8-3,3.8-0.1,0.1-0.6,0.8-0.6,0.8l-0.6-0.6c-6.3-6.8-14.3-11.3-23.1-13.6-0.6-0.1-1.1-0.3-1.7-0.4,1.6,2.1,3.2,4.1,4.9,6.1,0.5,0.6,1.1,1.2,1.6,1.9,0.1,0.2,0.3,0.3,0.4,0.5,0.2,0.3,0.5,0.5,0.7,0.8,4.1,4.4,8.4,8.4,13.1,12.1,3,2.4,6.2,4.6,9.5,6.7,0.1,0.1,0.2,0.1,0.3,0.2,0.5,0.3,0.9,0.6,1.4,0.9,0.2,0.1,0.5,0.3,0.7,0.4,0.3,0.2,0.7,0.4,1,0.6,0.4,0.2,0.7,0.4,1.1,0.6,0.2,0.1,0.4,0.2,0.6,0.3,0.4,0.2,0.9,0.5,1.3,0.7,10.1,2.1,20.6,3.3,31.3,3.3,39.7,0,75.8-15.4,102.7-40.6-12.4,10.1-29.1,19.6-50.1,23.3,0.2-0.1-1.5,0.2-2.3,0.3z"/>
			<path style="fill:#3fb48b;" class="st3" d="m325.3,144.3s-14.1-32.1-47.1-50.6v1.1c0,0.4-0.5,0.5-0.7,0.2l-1.3-2.1v-0.1c-0.1,0.3-0.2,0.5-0.4,0.7-0.7,0.6-3.5-0.3-3.7-0.7-0.1-0.3,0.4-0.8,0.9-1.1-0.5,0.2-1.2,0.3-1.5,0.3-0.1,0-0.2,0-0.3-0.1-2.1-1.1-2.5-1.9-2.5-2.3,0-0.1,0-0.2,0.2-0.3,0.3-0.1,0.6-0.2,0.9-0.3-9.7-4.9-20.2-8.6-31.1-10.8h-0.1c-0.6,0.2-1.3,0.4-2,0.5h-0.7c-0.6-0.2-2-0.7-3.1-1.5h-0.1c0.8,0.9,1.8,2.3,1.3,2.8-0.7,0.9-7.3,1.2-8.6-0.6-0.4-0.6-0.5-1.3-0.5-2.2l-4.3,4.2c-0.7,0.7-1.8,0.1-1.6-0.8l1-4.7c-2-0.1-4.1-0.2-6.2-0.2-17.7,0-34.5,3.7-49.8,10.4,3.6,0.5,7.2,1.8,10.5,3.3,1.9,0.8,2.8,1.5,4.6,1.4,2.7-0.2,5.4-0.9,8.2-1.2,6.1-0.6,12.2-0.8,18.3-0.9,3.4,0,6.3-2.7,9.8-2,0.1,0,1.9,0.6,1.9,0.6l-1.5,0.7c-0.1,0.1-0.1,0.1-0.2,0.2-1.8,1.2-2.6,3.7-3,5.9,13.5,0.3,27,1.8,40.1,5,16.7,4,33,10.5,47.4,19.9,5.5,3.6,11.1,7.6,15.5,12.4,0.1,0.1,1.9,2.2,1.9,2.2s-2.5-0.9-2.6-1c-7.4-2.8-15.3-1.7-21.7,2.3-2,1.3-3.6,2.7-4.8,3.8-0.8,0.8-2.8,3.2-2.8,3.2s-0.5-0.2-0.6-0.2c-4.1-1.8-8.3-3.4-12.7-4.7,1,2.3,1.8,4.8,2.5,7.2h-18.9l42.9,40.4,43.1-40.4h-16.6z"/>
		</g>
		<path style="fill:#1f3c1f;" class="st5" d="M289.4,114.3c-15.4-8.3-41.5-18.3-77.8-18.8h-0.8l0.1-0.8c0.1-0.5,0.7-4.3,2.4-6.4-1.2,0.2-2.9,0.7-5.4,1.9l-0.1,0.1h-0.2c-0.2,0-21.6,0-29.6,2.4l-0.3,0.1-0.2-0.1c-0.1-0.1-12.8-6.9-20.3-4.7l-3.1,0.9,2.5-2.1c0.1-0.1,8.2-7,8.5-16.4,0.1-2.9,2.1-10.7,2.3-11.5,0.1-0.2-0.1-0.4-0.1-0.4,0-0.1-0.2-0.1-0.3-0.1-2.1,0.3-7.9,2.7-16.4,19.2l-0.8,1.5-0.5-1.6c-0.1-0.2-5.1-16.5-13.5-15.3-5.2,0.7-7.3,12-7.3,16.2,0,4,2.7,8.2,2.7,8.2l0.3,0.5-0.4,0.4c-0.2,0.2-5.6,4.8-7.5,6.2-6.4,4.8-18.3,15.3-26.3,31.9-10.1,21-10.9,45-2.4,71.1,0.1,0.4,0.2,0.7,0.4,1.1,0.6,1.4,1.1,2.7,1.6,4,0.1,0.2,0.2,0.5,0.3,0.7,1.1,2.7,2.2,5.4,3.2,8,0.1,0.3,0.3,0.6,0.5,1,2.3,4.8,5.4,10.6,8.1,14h1.9c7.8,0,25.5,1.7,38.1,15.3,1.3-1.7,5.2-6.5,10.5-11,8.7-7.2,17.4-10.3,25.2-9,1.4-2.9,9.2-20.5-4.1-35.9l-0.1-0.1c-0.1-0.1-1.9-3.4-1.9-7.7,0-3.8-2.6-8.7-7.2-13.2-4.4-4.4-13.8-11.7-13.9-11.8l-0.6-0.5,0.6-0.5c0.1-0.1,2.3-2,4.6-2.3-1.2-0.7-3.2-1.2-6.2-0.7h-0.2l-0.2-0.1c-0.2-0.1-6-3.7-11.5-10.9l-0.3-0.4,0.3-0.4c0.1-0.2,11.6-15.6,35.8-16.9,12.7-0.7,21.5,4.2,26.7,8.5,4.6,3.8,7.1,7.6,7.9,9,2.1-0.7,10.2-3.4,21.5-4.4,12-1.1,30.3-0.6,49.4,8.1,2-2.4,12.6-14.1,27.4-10-3.6-3.4-11.2-9.9-23.3-16.3zm-126.1-54.2c0.5-0.4,1.1-0.7,1.7-1-0.6,0.2-1.1,0.6-1.7,1-0.5,0.4-1,0.8-1.5,1.3,0.5-0.5,1-0.9,1.5-1.3zm-15.2,89.1c-44-27.8-27.4-47.4-27.4-47.4-11,21.3,27.4,47.4,27.4,47.4zm76.4-47.5c45.4,2.5,58.9,31.3,58.9,31.3-18.3-27.1-58.9-31.3-58.9-31.3z"/>
		<path style="fill:#1f3c1f;" class="st5" d="m100.3,210.2c0,0.1,0.1,0.2,0.1,0.3-1.1-2.6-2.2-5.3-3.2-8,1,2.4,1.9,4.7,3.1,7.7z"/>
		<path style="fill:#78cab8;" class="st4" d="m148.1,149.2s-38.4-26-27.4-47.4c0.1-0.1-16.6,19.5,27.4,47.4z"/>
		<path style="fill:#78cab8;" class="st4" d="m283.4,133.1s-13.5-28.8-58.9-31.3c0-0.1,40.6,4.1,58.9,31.3z"/>
	</g>
	<g>
		<circle style="fill:#1f3c1f;" d="m 248.20001,219.3 c 0,1.98823 -1.61178,3.6 -3.6,3.6 -1.98823,0 -3.6,-1.61177 -3.6,-3.6 0,-1.98822 1.61177,-3.6 3.6,-3.6 1.98822,0 3.6,1.61178 3.6,3.6 z" cx="244.60001" cy="219.3" r="3.5999999" class="st5"/>
		<circle style="fill:#1f3c1f;" d="m 283.60001,206.5 c 0,3.03757 -2.46244,5.5 -5.5,5.5 -3.03757,0 -5.5,-2.46243 -5.5,-5.5 0,-3.03757 2.46243,-5.5 5.5,-5.5 3.03756,0 5.5,2.46243 5.5,5.5 z" cx="278.10001" cy="206.5" r="5.5" class="st5"/>
		<g>
			<path style="fill:#1f3c1f;" class="st5" d="m256.3,199.2s-0.5,0.5-0.3,1-0.4,1.4-0.2,1.9-0.9,1.4-0.6,1.5,3.4-3.6,3.4-5.5c0.1-2.1-2.3,1.1-2.3,1.1z"/>
			<path style="fill:#1f3c1f;" class="st5" d="m257.8,196.7s-2.5-0.2-3.7,0.6-3.8,2-3.3,2.5,4.7,0.2,6.3-0.8c1.5-1,0.7-2.3,0.7-2.3z"/>
			<path style="fill:#1f3c1f;" class="st5" d="m258.4,195.9s-0.2-3.4-3.4-2.7,0.4,0.7,0.5,0.9c0,0.3,0.3,0.5,0.6,1.2s-0.1,1.5,1.6,1.4c1.8-0.1,0.7-0.8,0.7-0.8z"/>
			<path style="fill:#1f3c1f;" class="st5" d="m260.4,187.8s0.9,3.6-1.8,8.7-0.1-1.4-0.3-1.8-0.2-3.7,0.5-4,0.7-3.4,1.6-2.9z"/>
			<path style="fill:#1f3c1f;" class="st5" d="m257.8,198.2,3.7,1.2s1.6-0.9,0.7-1.7-3.9-2.5-3.9-2.5l-1.5,2.1,1,0.9z"/>
			<g>
					<rect style="fill:#1f3c1f;" transform="matrix(-0.9005,-0.4348,0.4348,-0.9005,412.856,492.7711)" height="0.40000001" width="2.7" y="199" x="261.5" class="st5"/>
			</g>
		</g>
		<g>
			<path style="fill:#1f3c1f;" class="st5" d="m244,228.1s0.7-0.1,0.9-0.7,1.2-1.1,1.3-1.6c0.2-0.5,1.6-0.7,1.4-1s-5.2,1.2-6.4,2.8c-1.3,1.8,2.8,0.5,2.8,0.5z"/>
			<path style="fill:#1f3c1f;" class="st5" d="m241.1,229.3s2.1,1.7,3.7,1.7,4.6,0.6,4.5-0.2c-0.2-0.7-4.1-3-6.1-3.1-2,0-2.1,1.6-2.1,1.6z"/>
			<path style="fill:#1f3c1f;" class="st5" d="m240.1,229.6s-1.9,3.1,1.3,4.5,0-0.9,0.2-1.1c0.1-0.2,0-0.6,0.2-1.5s1-1.2-0.6-2.2c-1.6-0.9-1.1,0.3-1.1,0.3z"/>
			<path style="fill:#1f3c1f;" class="st5" d="m233.4,235.7s1.4-3.8,6.9-6.8-0.7,1.3-0.8,1.8-2.1,3.4-2.9,3.3-2.7,2.7-3.2,1.7z"/>
			<path style="fill:#1f3c1f;" class="st5" d="m242,228-2.6-3.4s-2-0.2-1.7,1.1,2,4.5,2,4.5l2.6-1-0.3-1.2z"/>
			<g>
					<rect style="fill:#1f3c1f;" transform="matrix(0.5008,0.8655,-0.8655,0.5008,312.8112,-94.2457)" height="0.40000001" width="2.8" y="223.89999" x="236.7" class="st5"/>
			</g>
		</g>
		<path style="fill:#1f3c1f;" class="st5" d="m235.6,184.7s5.9,3,8.7,13l0.4-2.1s-2.3-7.5-8.9-11.5l-0.2,0.6z"/>
		<path style="fill:#1f3c1f;" class="st5" d="m242.5,172.3s6.9,6.2,1.1,28.1l1.1-2.3s5.3-18.2-0.8-26.4l-1.4,0.6z"/>
		<path style="fill:#1f3c1f;" class="st5" d="m255.3,215.9s-0.9-5.9-21.6-12c-16-4.7-9.1-15.2-25.2-20.2-11.1-3.4,16.9-0.8,26.7,5.5,4.9,3.1,7.6,7.3,7.9,8.1,0.4,0.8,2.9,0.7,6.8,2.6,7.8,3.7,7.4,6.8,7.1,11.9,0,3.4-1.7,4.1-1.7,4.1z"/>
		<circle style="fill:#1f3c1f;" d="m 269.20001,216.2 c 0,1.65685 -1.34314,3 -3,3 -1.65685,0 -3,-1.34315 -3,-3 0,-1.65686 1.34315,-3 3,-3 1.65686,0 3,1.34314 3,3 z" cx="266.20001" cy="216.2" r="3" class="st5"/>
		<circle style="fill:#1f3c1f;" d="m 263.09999,221.89999 c 0,0.93889 -0.76111,1.7 -1.7,1.7 -0.93888,0 -1.7,-0.76111 -1.7,-1.7 0,-0.93888 0.76112,-1.7 1.7,-1.7 0.93889,0 1.7,0.76112 1.7,1.7 z" cx="261.39999" cy="221.89999" r="1.7" class="st5"/>
		<path style="fill:#1f3c1f;" class="st5" d="m261.8,222.3s3.4,3.4,4.9,2.7l-0.3,1s-4.1-1.6-4.9-3.4c-0.9-2,0.3-0.3,0.3-0.3z"/>
		<path style="fill:#1f3c1f;" class="st5" d="m266.4,216.6s2.1,5.3-0.1,10.7c-0.8,1.9-3.7,4.7-2.2,2.3,2.1-3.2,3.9-8.3,1-14.2"/>
		<circle style="fill:#1f3c1f;" d="m 199.39999,222.2 c 0,1.65685 -1.34314,3 -3,3 -1.65685,0 -3,-1.34315 -3,-3 0,-1.65686 1.34315,-3 3,-3 1.65686,0 3,1.34314 3,3 z" cx="196.39999" cy="222.2" r="3" class="st5"/>
		<circle style="fill:#1f3c1f;" d="m 194.7,228.89999 c 0,0.93889 -0.76112,1.7 -1.7,1.7 -0.93888,0 -1.7,-0.76111 -1.7,-1.7 0,-0.93888 0.76112,-1.7 1.7,-1.7 0.93888,0 1.7,0.76112 1.7,1.7 z" cx="193" cy="228.89999" r="1.7" class="st5"/>
		<path style="fill:#1f3c1f;" class="st5" d="m193.5,229.2s4.1,2.5,5.4,1.4v1.1s-4.4-0.5-5.6-2.1c-1.3-1.7,0.2-0.4,0.2-0.4z"/>
		<path style="fill:#1f3c1f;" class="st5" d="m196.7,222.6s3.4,4.7,2.5,10.4c-0.3,2-2.5,5.4-1.6,2.7,1.2-3.6,1.8-9-2.5-14"/>
		<path style="fill:#1f3c1f;" class="st5" d="m256.3,197.4s-8.2-3.9-12.9,3.9l0.2-2.2s4.5-5.5,12.5-2.3l0.2,0.6z"/>
		<circle style="fill:#1f3c1f;" d="m 285.3,218 c 0,1.27025 -1.02975,2.3 -2.3,2.3 -1.27025,0 -2.3,-1.02975 -2.3,-2.3 0,-1.27025 1.02975,-2.3 2.3,-2.3 1.27025,0 2.3,1.02975 2.3,2.3 z" cx="283" cy="218" r="2.3" class="st5"/>
		<circle style="fill:#1f3c1f;" d="m 271.20001,202 c 0,1.65685 -1.34314,3 -3,3 -1.65685,0 -3,-1.34315 -3,-3 0,-1.65685 1.34315,-3 3,-3 1.65686,0 3,1.34315 3,3 z" cx="268.20001" cy="202" r="3" class="st5"/>
		<path style="fill:#1f3c1f;" class="st5" d="m255.2,185.5s-8.3,8.4-10.9,13.9l0.2-2s6-9.5,10.7-13.3"/>
		<path style="fill:#1f3c1f;" class="st5" d="m251.5,172.7s-1.6,19.8-10.5,30.4c-0.1,0,10-7.5,10.5-30.4z"/>
		<path style="fill:#1f3c1f;" class="st5" d="m283.9,216.7s0.5,5.3-6.6,10.8,4.6-4.9,6.6-10.8z"/>
		<path style="fill:#1f3c1f;" class="st5" d="m268.2,202s11.5,10-1.4,26.4c0-0.1,11.1-15.7,1.4-26.4z"/>
		<path style="fill:#1f3c1f;" class="st5" d="m245.2,158.2s4.3,13.1,0.5,22.4c0-0.1,1.7-11.6-0.5-22.4z"/>
		<g>
			<path style="fill:#1f3c1f;" class="st5" d="m256.9,211.9-2.3,1.2c4.3,13-5.2,21.1-9.9,24.2-2.8-9.1,1.6-18,1.6-18h-1.7c-1.2,6.6-1.6,11-1.6,14-0.9-2.5-1.7-3.9-1.7-3.9s-5.9-10.1-0.2,1.6c1,2.1,1.7,3.8,2.1,5.6,0.1,0.9,0.3,1.4,0.3,1.5-0.8,0.5-1.4,0.7-1.4,0.7l-0.6,0.4c0.3,0,1.8-0.3,2.1-0.4,0.3,0,0.6-0.1,1-0.2,0.1,0,0.3,0,0.4-0.1h0.1c17.9-12.6,11-24.2,11.8-26.6z"/>
			<path style="fill:#1f3c1f;" class="st5" d="m257.7,235.2c11.4-6.6,19.8-17.8,21.3-27.2-3,9-11.1,19.9-21.9,26.2-1.9,1.1-3.4,2-4.6,2.8,1.4-0.4,2.8-0.7,4.2-1.1,0.3-0.3,0.6-0.5,1-0.7z"/>
		</g>
		<g>
			<path style="fill:#1f3c1f;" class="st5" d="m220.1,220.3s0.8,1.1,2,0.9c1.1-0.2,2.8,1.1,3.9,0.9,1-0.2,2.7,2.3,3,1.6,0.4-0.7-6.7-7.9-10.7-8.6s1.8,5.2,1.8,5.2z"/>
			<path style="fill:#1f3c1f;" class="st5" d="m215.4,216.5s-1,5.2,0.4,7.9c1.3,2.7,3.1,8.5,4.3,7.6,1.1-0.9,1.5-9.8-0.1-13.4s-4.6-2.1-4.6-2.1z"/>
			<path style="fill:#1f3c1f;" class="st5" d="m213.9,214.9s-7.1-0.5-6.6,6.3,1.5-0.7,2.1-0.7c0.5,0,1.1-0.5,2.7-1s3,0.5,3.3-3c0.3-3.6-1.5-1.6-1.5-1.6z"/>
			<path style="fill:#1f3c1f;" class="st5" d="m197.4,208.7s7.8-1.1,17.8,5.9-3-0.1-3.7,0.2c-0.8,0.3-7.8-0.5-8.3-2-0.5-1.4-7-2.2-5.8-4.1z"/>
			<path style="fill:#1f3c1f;" class="st5" d="m218.5,216.7,3.6-7.6s-1.5-3.6-3.4-2c-1.9,1.7-6.1,7.4-6.1,7.4l4,3.6,1.9-1.4z"/>
			<g>
					<rect style="fill:#1f3c1f;" transform="matrix(-0.5392,0.8422,-0.8422,-0.5392,515.4102,131.1109)" height="0.69999999" width="5.5" y="206.2" x="219.10001" class="st5"/>
			</g>
		</g>
		<g>
			<path style="fill:#1f3c1f;" class="st5" d="m222.1,235.1c13.8-7.3,22.9-22.9,23.1-37.5-2.3,13.5-11.1,28.7-24.2,35.6-5.5,2.9-11.3,4.6-17.1,5.1,2.2,0.4,4.3,0.8,6.4,1.1,4.1-0.9,8-2.3,11.8-4.3z"/>
			<path style="fill:#1f3c1f;" class="st5" d="m217.5,211.9c-4.5,9.5-12.8,18.9-22.9,24.2,1,0.3,2,0.5,3,0.8,9.6-5.7,17-14.9,19.9-25z"/>
		</g>
		<circle style="fill:#1f3c1f;" d="m 247.7,158.60001 c 0,2.04345 -1.65655,3.7 -3.7,3.7 -2.04345,0 -3.7,-1.65655 -3.7,-3.7 0,-2.04346 1.65655,-3.7 3.7,-3.7 2.04345,0 3.7,1.65654 3.7,3.7 z" cx="244" cy="158.60001" r="3.7" class="st5"/>
		<circle style="fill:#1f3c1f;" d="m 259.8,183.7 c 0,2.20914 -1.79086,4 -4,4 -2.20914,0 -4,-1.79086 -4,-4 0,-2.20914 1.79086,-4 4,-4 2.20914,0 4,1.79086 4,4 z" cx="255.8" cy="183.7" r="4" class="st5"/>
		<circle style="fill:#1f3c1f;" d="m 238.8,182.89999 c 0,2.26437 -1.83564,4.1 -4.1,4.1 -2.26437,0 -4.1,-1.83563 -4.1,-4.1 0,-2.26436 1.83563,-4.1 4.1,-4.1 2.26436,0 4.1,1.83564 4.1,4.1 z" cx="234.7" cy="182.89999" r="4.0999999" class="st5"/>
		<circle style="fill:#1f3c1f;" d="m 249,181.60001 c 0,2.59573 -2.10426,4.7 -4.7,4.7 -2.59574,0 -4.7,-2.10427 -4.7,-4.7 0,-2.59574 2.10426,-4.7 4.7,-4.7 2.59574,0 4.7,2.10426 4.7,4.7 z" cx="244.3" cy="181.60001" r="4.6999998" class="st5"/>
		<circle style="fill:#1f3c1f;" d="m 243.89999,170.7 c 0,2.20914 -1.79086,4 -4,4 -2.20914,0 -4,-1.79086 -4,-4 0,-2.20914 1.79086,-4 4,-4 2.20914,0 4,1.79086 4,4 z" cx="239.89999" cy="170.7" r="4" class="st5"/>
		<circle style="fill:#1f3c1f;" d="m 255.2,172.7 c 0,2.04345 -1.65655,3.7 -3.7,3.7 -2.04345,0 -3.7,-1.65655 -3.7,-3.7 0,-2.04346 1.65655,-3.7 3.7,-3.7 2.04345,0 3.7,1.65654 3.7,3.7 z" cx="251.5" cy="172.7" r="3.7" class="st5"/>
	</g>
	<g>
		<g>
			<path style="fill:#1f3c1f;" class="st5" d="m216.9,173.2s5.9-0.8,5.6,1.2c-0.5,3.6-1.3,1.6-3.6,4.1s-13.5,3.9-15.7,3.5c-2.1-0.4,0.1-4.5,3-4.9,3-0.4,10.7-3.9,10.7-3.9z"/>
			<path style="fill:#1f3c1f;" class="st5" d="m219.5,174.5s-3.7-17.6-19.7-24.3-4.3-2.4-5.3,1.2,2.5,4.6,2.1,6.8,1,0.8,0.3,2.9l0.6,0.7-1.6,1.5c-0.5,1.5-1.3,2.4-1.5,2.8s0.5,2,0.3,2.5c-0.6,1.6,1.1,2.3,0.5,4-0.2,0.4-0.2,0.9,0,1.2,0.3,0.9,0.8,2.2,0.7,2.6-0.2,0.5-0.1,2.3,1.8,2.2s7.9-2.9,11.2-0.5c3.2,2.4,10.6-3.6,10.6-3.6z"/>
			<path style="fill:#1f3c1f;" class="st5" d="m218.8,176.5s-0.6,1.6-1.5,2.1-1.9,1.1-2.1,1.6c-0.2,0.4-1.7,3.6-1.7,3.6s-0.9,0.6-1.3,0.5,0.9-0.6,0.9-0.6,1.2-2.5,1.7-3.6,2.2-1.8,2.2-1.8,0.5-1.4,1.1-1.6c0.7-0.2,0.7-0.2,0.7-0.2z"/>
			<path style="fill:#1f3c1f;" class="st5" d="m218.7,177.3s0.7,2.1,0.3,3.2-1.4,1-1.8,4.1,0.7,1.9,0.5,2.3c0,0-0.3,0.4-0.5-0.1s0.1-1.4-0.4-2.3,1.9-4.3,1.9-4.3-0.8-2.1-0.5-3.1c0.3-0.8,0.5,0.2,0.5,0.2z"/>
			<path style="fill:#1f3c1f;" class="st5" d="m216.5,179.8s-0.4,3-0.8,3.7c-0.4,0.6-0.7,0.4-0.9,1.7,0,0-0.3,0.1-0.2-0.5s0.3-0.7,0.7-1.3,0.9-3.3,0.5-3.7c-0.3-0.5,0.7,0.1,0.7,0.1z"/>
			<path style="fill:#1f3c1f;" class="st5" d="m212.1,178.6s-1.4,2.8-1.4,3.5c-0.1,0.7,0.4,0.7-0.2,1.9,0,0,0.2,0.3,0.4-0.4,0.2-0.6,0.2-0.8,0.2-1.5s1.1-3.2,1.7-3.3c0.5,0-0.7-0.2-0.7-0.2z"/>
		</g>
		<g>
			<path style="fill:#1f3c1f;" class="st5" d="m221.2,173.8h0.1c2.2-2.6,3-6.1,3-6.1,0-0.1,0-0.2-0.1-0.2s-0.1,0-0.2,0.1-0.8,3.5-3,6c0.1,0,0.1,0.1,0.2,0.2z"/>
		</g>
		<g>
			<path style="fill:#1f3c1f;" class="st5" d="m221.6,173.9c2.1-0.2,2.8-1.2,2.8-1.3v-0.2h-0.2s-0.7,0.9-2.6,1.2c-0.1,0-0.1,0.1-0.1,0.2s0,0.1,0.1,0.1z"/>
		</g>
	</g>
	<path style="fill:#ffffff;" class="st0" d="m148.7,242.4s-11.6-15.8-40.9-14l1.2-3s31.6,1.4,39.7,17z"/>
</g>
<path style="fill:#a4dbdd;" class="st5" d="m12.6,270.6v1c0,2.8-0.9,4.5-2.7,5.4,2.3,0.9,3.2,2.9,3.2,5.8v2.2c0,4.1-2.2,6.4-6.4,6.4h-6.7v-26.9h6.4c4.4-0.1,6.2,1.9,6.2,6.1zm-8.3-2.4v7.1h1.6c1.6,0,2.5-0.7,2.5-2.8v-1.5c0-1.9-0.7-2.8-2.1-2.8h-2zm0,11v8.3h2.4c1.4,0,2.2-0.7,2.2-2.7v-2.3c0-2.5-0.8-3.3-2.7-3.3h-1.9z"/><path style="fill:#a4dbdd;" class="st5" d="M37,291.3h-4.3l-0.7-4.9h-5.2l-0.7,4.9h-3.9l4.3-26.9h6.2l4.3,26.9zm-9.7-8.6h4.1l-2-13.6-2.1,13.6z"/><path style="fill:#a4dbdd;" class="st5" d="m43.9,264.4h13v3.8h-4.4v23h-4.2v-23h-4.4v-3.8z"/><path style="fill:#a4dbdd;" class="st5" d="m84.4,275.7h5.8v3.8h-5.8v7.9h7.3v3.8h-11.5v-26.9h11.5v3.8h-7.3v7.6z"/><path style="fill:#a4dbdd;" class="st5" d="m114.2,281.3v3.6c0,4.3-2.1,6.8-6.3,6.8-4.1,0-6.3-2.5-6.3-6.8v-14c0-4.3,2.1-6.8,6.3-6.8,4.1,0,6.3,2.5,6.3,6.8v2.6h-4v-2.9c0-1.9-0.9-2.7-2.2-2.7s-2.2,0.7-2.2,2.7v14.5c0,1.9,0.9,2.6,2.2,2.6s2.2-0.7,2.2-2.6v-3.8h4z"/><path style="fill:#a4dbdd;" class="st5" d="m124.1,270.8c0-4.3,2.3-6.8,6.4-6.8s6.4,2.5,6.4,6.8v14c0,4.3-2.3,6.8-6.4,6.8s-6.4-2.5-6.4-6.8v-14zm4.2,14.3c0,1.9,0.9,2.7,2.2,2.7s2.2-0.7,2.2-2.7v-14.5c0-1.9-0.9-2.7-2.2-2.7s-2.2,0.7-2.2,2.7v14.5z"/><path style="fill:#a4dbdd;" class="st5" d="m147.1,275.9h7.7v3.8h-7.7v-3.8z"/><path style="fill:#a4dbdd;" class="st5" d="m165.4,264.4h4.3v26.9h-4.2l-0.1-26.9z"/><path style="fill:#a4dbdd;" class="st5" d="m184.1,271.8v19.5h-3.8v-26.9h5.3l4.3,16.1v-16.1h3.7v26.9h-4.3l-5.2-19.5z"/><path style="fill:#a4dbdd;" class="st5" d="m203.2,264.4h13v3.8h-4.4v23h-4.2v-23h-4.4v-3.8z"/><path style="fill:#a4dbdd;" class="st5" d="m230,275.7h5.8v3.8h-5.8v7.9h7.3v3.8h-11.5v-26.9h11.5v3.8h-7.3v7.6z"/><path style="fill:#a4dbdd;" class="st5" d="m256.5,291.3c-0.2-0.7-0.4-1.1-0.4-3.3v-4.2c0-2.5-0.9-3.4-2.8-3.4h-1.4v10.9h-4.2v-26.9h6.4c4.4,0,6.2,2,6.2,6.2v2.1c0,2.8-0.9,4.6-2.8,5.5,2.1,0.9,2.8,2.9,2.8,5.7v4.1c0,1.3,0,2.3,0.5,3.3h-4.3zm-4.6-23.1v8.3h1.6c1.6,0,2.5-0.7,2.5-2.8v-2.7c0-1.9-0.7-2.8-2.1-2.8h-2z"/><path style="fill:#a4dbdd;" class="st5" d="m284.4,291.3h-4.3l-0.7-4.9h-5.2l-0.7,4.9h-3.9l4.3-26.9h6.2l4.3,26.9zm-9.6-8.6h4.1l-2-13.6-2.1,13.6z"/><path style="fill:#a4dbdd;" class="st5" d="m306.3,281.3v3.6c0,4.3-2.1,6.8-6.3,6.8s-6.3-2.5-6.3-6.8v-14c0-4.3,2.1-6.8,6.3-6.8s6.3,2.5,6.3,6.8v2.6h-4v-2.9c0-1.9-0.9-2.7-2.2-2.7s-2.2,0.7-2.2,2.7v14.5c0,1.9,0.9,2.6,2.2,2.6s2.2-0.7,2.2-2.6v-3.8h4z"/><path style="fill:#a4dbdd;" class="st5" d="m315.3,264.4h13v3.8h-4.4v23h-4.2v-23h-4.4v-3.8z"/><path style="fill:#a4dbdd;" class="st5" d="m337.9,264.4h4.2v26.9h-4.2v-26.9z"/><path style="fill:#a4dbdd;" class="st5" d="m352.5,270.8c0-4.3,2.3-6.8,6.4-6.8s6.4,2.5,6.4,6.8v14c0,4.3-2.3,6.8-6.4,6.8s-6.4-2.5-6.4-6.8v-14zm4.2,14.3c0,1.9,0.9,2.7,2.2,2.7s2.2-0.7,2.2-2.7v-14.5c0-1.9-0.9-2.7-2.2-2.7s-2.2,0.7-2.2,2.7v14.5z"/><path style="fill:#a4dbdd;" class="st5" d="m379.5,271.8v19.5h-3.8v-26.9h5.3l4.3,16.1v-16.1h3.7v26.9h-4.4l-5.1-19.5z"/><path style="fill:#a4dbdd;" class="st5" d="m405.5,264.1c4.1,0,6.2,2.5,6.2,6.8v0.9h-4v-1.1c0-1.9-0.8-2.7-2.1-2.7s-2.1,0.7-2.1,2.7c0,5.5,8.3,6.6,8.3,14.2,0,4.3-2.1,6.8-6.3,6.8s-6.3-2.5-6.3-6.8v-1.6h4v1.9c0,1.9,0.9,2.6,2.2,2.6s2.2-0.7,2.2-2.6c0-5.5-8.3-6.6-8.3-14.2,0-4.5,2.1-6.9,6.2-6.9z"/>
</svg>
