<?xml version="1.0" encoding="UTF-8" standalone="no"?>
<!DOCTYPE svg PUBLIC "-//W3C//DTD SVG 1.1//EN"
 "http://www.w3.org/Graphics/SVG/1.1/DTD/svg11.dtd">
<!-- Generated by graphviz version 2.43.0 (0)
 -->
<!-- Title: bees_only Pages: 1 -->
<svg width="257pt" height="552pt"
 viewBox="0.00 0.00 256.90 552.43" xmlns="http://www.w3.org/2000/svg" xmlns:xlink="http://www.w3.org/1999/xlink">
<g id="graph0" class="graph" transform="scale(1 1) rotate(0) translate(4 548.43)">
<title>bees_only</title>
<polygon fill="white" stroke="transparent" points="-4,4 -4,-548.43 252.9,-548.43 252.9,4 -4,4"/>
<!-- interactions -->
<g id="node1" class="node">
<title>interactions</title>
<polygon fill="none" stroke="black" points="200.45,-544.43 48.45,-544.43 48.45,-506.43 200.45,-506.43 200.45,-544.43"/>
<text text-anchor="middle" x="124.45" y="-529.23" font-family="Times,serif" font-size="14.00">verbatim&#45;interactions.tsv</text>
<text text-anchor="middle" x="124.45" y="-514.23" font-family="Times,serif" font-size="14.00">(GloBI v0.6/v0.7)</text>
</g>
<!-- parse -->
<g id="node2" class="node">
<title>parse</title>
<ellipse fill="none" stroke="black" cx="124.45" cy="-443.56" rx="115.93" ry="26.74"/>
<text text-anchor="middle" x="124.45" y="-447.36" font-family="Times,serif" font-size="14.00">(a) parse taxonomic names</text>
<text text-anchor="middle" x="124.45" y="-432.36" font-family="Times,serif" font-size="14.00">(GBIF Parser v3.12.0)</text>
</g>
<!-- interactions&#45;&gt;parse -->
<g id="edge1" class="edge">
<title>interactions&#45;&gt;parse</title>
<path fill="none" stroke="black" d="M124.45,-506.31C124.45,-498.7 124.45,-489.57 124.45,-480.69"/>
<polygon fill="black" stroke="black" points="127.95,-480.49 124.45,-470.49 120.95,-480.49 127.95,-480.49"/>
</g>
<!-- align -->
<g id="node3" class="node">
<title>align</title>
<ellipse fill="none" stroke="black" cx="124.45" cy="-343.22" rx="118.17" ry="37.45"/>
<text text-anchor="middle" x="124.45" y="-354.52" font-family="Times,serif" font-size="14.00">(b) align with</text>
<text text-anchor="middle" x="124.45" y="-339.52" font-family="Times,serif" font-size="14.00">DiscoverLife Bee Checklist</text>
<text text-anchor="middle" x="124.45" y="-324.52" font-family="Times,serif" font-size="14.00">(Nomer v0.5.8)</text>
</g>
<!-- parse&#45;&gt;align -->
<g id="edge2" class="edge">
<title>parse&#45;&gt;align</title>
<path fill="none" stroke="black" d="M124.45,-416.47C124.45,-408.61 124.45,-399.75 124.45,-390.98"/>
<polygon fill="black" stroke="black" points="127.95,-390.8 124.45,-380.8 120.95,-390.8 127.95,-390.8"/>
</g>
<!-- select -->
<g id="node4" class="node">
<title>select</title>
<ellipse fill="none" stroke="black" cx="124.45" cy="-251.74" rx="106.68" ry="18"/>
<text text-anchor="middle" x="124.45" y="-248.04" font-family="Times,serif" font-size="14.00">(c) select bee families only</text>
</g>
<!-- align&#45;&gt;select -->
<g id="edge3" class="edge">
<title>align&#45;&gt;select</title>
<path fill="none" stroke="black" d="M124.45,-305.57C124.45,-297.07 124.45,-288.17 124.45,-280.16"/>
<polygon fill="black" stroke="black" points="127.95,-279.89 124.45,-269.89 120.95,-279.89 127.95,-279.89"/>
</g>
<!-- bees_only_interactions -->
<g id="node5" class="node">
<title>bees_only_interactions</title>
<polygon fill="none" stroke="black" points="202.45,-197.74 46.45,-197.74 46.45,-161.74 202.45,-161.74 202.45,-197.74"/>
<text text-anchor="middle" x="124.45" y="-176.04" font-family="Times,serif" font-size="14.00">bees&#45;only&#45;interactions.tsv</text>
</g>
<!-- select&#45;&gt;bees_only_interactions -->
<g id="edge4" class="edge">
<title>select&#45;&gt;bees_only_interactions</title>
<path fill="none" stroke="black" d="M124.45,-233.44C124.45,-225.72 124.45,-216.45 124.45,-207.85"/>
<polygon fill="black" stroke="black" points="127.95,-207.84 124.45,-197.84 120.95,-207.84 127.95,-207.84"/>
</g>
<!-- review -->
<g id="node6" class="node">
<title>review</title>
<ellipse fill="none" stroke="black" cx="124.45" cy="-98.87" rx="124.4" ry="26.74"/>
<text text-anchor="middle" x="124.45" y="-102.67" font-family="Times,serif" font-size="14.00">(d) generate review report</text>
<text text-anchor="middle" x="124.45" y="-87.67" font-family="Times,serif" font-size="14.00">(check&#45;dataset.sh @09d2f68)</text>
</g>
<!-- bees_only_interactions&#45;&gt;review -->
<g id="edge5" class="edge">
<title>bees_only_interactions&#45;&gt;review</title>
<path fill="none" stroke="black" d="M124.45,-161.63C124.45,-154.14 124.45,-145.05 124.45,-136.17"/>
<polygon fill="black" stroke="black" points="127.95,-135.95 124.45,-125.95 120.95,-135.95 127.95,-135.95"/>
</g>
<!-- review_report -->
<g id="node7" class="node">
<title>review_report</title>
<polygon fill="none" stroke="black" points="189.95,-36 58.95,-36 58.95,0 189.95,0 189.95,-36"/>
<text text-anchor="middle" x="124.45" y="-14.3" font-family="Times,serif" font-size="14.00">bees&#45;only&#45;review.pdf</text>
</g>
<!-- review&#45;&gt;review_report -->
<g id="edge6" class="edge">
<title>review&#45;&gt;review_report</title>
<path fill="none" stroke="black" d="M124.45,-71.61C124.45,-63.51 124.45,-54.57 124.45,-46.39"/>
<polygon fill="black" stroke="black" points="127.95,-46.22 124.45,-36.22 120.95,-46.22 127.95,-46.22"/>
</g>
</g>
</svg>
