<?xml version="1.0" encoding="utf-8"?>
<!-- Generator: Adobe Illustrator 15.0.0, SVG Export Plug-In  -->
<!DOCTYPE svg PUBLIC "-//W3C//DTD SVG 1.1//EN" "http://www.w3.org/Graphics/SVG/1.1/DTD/svg11.dtd" [
	<!ENTITY ns_flows "http://ns.adobe.com/Flows/1.0/">
]>
<svg version="1.1"
	 xmlns="http://www.w3.org/2000/svg" xmlns:xlink="http://www.w3.org/1999/xlink" xmlns:a="http://ns.adobe.com/AdobeSVGViewerExtensions/3.0/"
	 x="0px" y="0px" width="2525px" height="1375px" viewBox="-18.014 -166.926 2525 1375"
	 overflow="visible" enable-background="new -18.014 -166.926 2525 1375" xml:space="preserve">
<defs>
</defs>
<text transform="matrix(1 0 0 1 0 857.498)"><tspan x="0" y="0" fill="#1867A5" font-family="'TrebuchetMS-Bold'" font-size="1000" letter-spacing="-10">Gl</tspan><tspan x="946.309" y="0" fill="#1867A5" font-family="'TrebuchetMS-Bold'" font-size="1000" letter-spacing="375"> </tspan><tspan x="1622.578" y="0" fill="#1867A5" font-family="'TrebuchetMS-Bold'" font-size="1000" letter-spacing="-10">BI</tspan></text>
<circle fill="#FFFFFF" cx="1288.146" cy="540.118" r="337.464"/>
<path opacity="0.35" fill="#4C629D" d="M1531.997,704.316c0,0-232.817-174.452-530.114-98.016
	c-7.146-19.823-7.146-54.406-7.146-54.406s329.038,8.96,560.652,110.65C1545.689,684.766,1531.997,704.316,1531.997,704.316z"/>
<path opacity="0.35" fill="#86BAE4" d="M1549.668,407.413c0,0-148.782,253.019-547.785,198.888
	c12.11,50.094,18.807,56.244,18.807,56.244s275.218-1.329,552.321-193.082C1563.495,430.572,1549.668,407.413,1549.668,407.413z"/>
<path opacity="0.55" fill="#D3636B" d="M1299.18,835.177c0,0,63.969-3.334,107.634-25.718c-15.291-38.416-123.91-339.883-239.14,0
	c61.14,25.718,109.476,24.848,109.476,24.848s-6.539-165.68,10.095-165.68C1303.876,668.627,1299.18,835.177,1299.18,835.177z"/>
<path opacity="0.5" fill="#D3636B" d="M1483.147,760.25c0,0-155.857-194.184-479.83-290.787c-7.853,28.857-8.58,60.401-8.58,60.401
	s353.356,0,412.635,279.511C1446.212,794.784,1483.147,760.25,1483.147,760.25z"/>
<path opacity="0.3" fill="#F69679" d="M1167.674,808.59c0,0,54.951-340.265,331.376-63.591
	c19.434-20.304,33.757-39.966,33.757-39.966s-236.034-214.019-439.622,55.217C1128.423,792.172,1167.674,808.59,1167.674,808.59z"/>
<path opacity="0.3" fill="#F69679" d="M1047.302,708.645c0,0,321.451-149.754-43.984-239.182
	c12.994-49.978,16.503-47.762,16.503-47.762s326.536,80.094,73.364,338.549C1065.814,736.514,1047.302,708.645,1047.302,708.645z"/>
<path opacity="0.4" fill="#FFDE17" d="M1019.82,421.701c0,0,219.122,77.568,561.773,108.163c-0.729-30.53-8.583-60.401-8.583-60.401
	s-257.921,71.415-529.694-90.496C1028.715,401.134,1019.82,421.701,1019.82,421.701z"/>
<path opacity="0.4" fill="#FFDE17" d="M1073.833,340.375c0,0,112.287,111.749,380.499-41.47
	c23.827,17.237,36.927,30.099,36.927,30.099s-106.233,94.584-447.942,49.963C1051.2,367.203,1051.342,365.721,1073.833,340.375z"/>
<path opacity="0.25" fill="#00B2C1" d="M1089.479,324.864c0,0,213.998,233.22,364.853-25.958
	c-15.908-12.511-35.917-21.154-35.917-21.154s-134.068,281.56-276.773,8.739C1099.256,309.107,1089.479,324.864,1089.479,324.864z"
	/>
<path opacity="0.25" fill="#00B2C1" d="M1374.708,260.266c0,0-95.499,246.064,189.084,381.896
	c9.219-25.312,12.74-44.312,12.74-44.312s-297.984-36.911-158.117-320.1C1401.231,268.849,1374.708,260.266,1374.708,260.266z"/>
<path opacity="0.4" fill="#1C75BC" d="M1549.668,407.413c0,0-148.872,145.073,31.926,144.481c0,23.146-5.062,45.956-5.062,45.956
	s-217.226-98.373-69.949-253.017C1539.755,381.935,1549.668,407.413,1549.668,407.413z"/>
<path opacity="0.6" fill="#D7DF23" d="M1047.302,708.645c0,0,318.088-142.508,154.313-448.379
	c-37.8,11.509-59.974,26.225-59.974,26.225s238.883,258.134-120.952,376.055C1036.104,694.47,1047.302,708.645,1047.302,708.645z"/>
<path opacity="0.6" fill="#D7DF23" d="M1277.149,247.45c0,0,14.2,256.66,22.03,0c43.993,1.452,75.528,12.816,75.528,12.816
	s-74.467,295.447-173.093,0C1246.617,246.731,1277.149,247.45,1277.149,247.45z"/>
<path fill="#86BAE4" d="M1506.583,344.834c44.451,49.474,72.38,114.073,75.011,185.03h44.085
	c-1.325-41.69-10.175-82.156-26.366-120.439c-14.957-35.362-35.589-67.552-61.433-95.887L1506.583,344.834z"/>
<path fill="#1C75BC" d="M1581.594,551.895c-1.171,31.606-7.362,61.955-17.802,90.268l40.188,18.545
	c13.229-34.816,20.508-71.32,21.699-108.812H1581.594z"/>
<path fill="#00B2C1" d="M1299.18,247.45c74.377,2.757,141.771,33.312,192.079,81.554l31.258-31.258
	c-29.998-28.939-64.586-51.809-102.899-68.016c-38.283-16.192-78.749-25.04-120.438-26.366V247.45z"/>
<path fill="#4F5C99" d="M1555.39,662.545c-14.019,30.668-33.167,58.521-56.34,82.454l31.259,31.257
	c27.187-27.948,49.069-59.923,65.169-95.208L1555.39,662.545z"/>
<path fill="#D3636B" d="M1483.147,760.25c-49.334,43.896-113.52,71.445-183.968,74.057v44.085
	c41.688-1.324,82.154-10.174,120.438-26.365c34.925-14.772,66.753-35.08,94.831-60.476L1483.147,760.25z"/>
<path fill="#D7DF23" d="M1089.479,324.864c49.805-45.846,115.443-74.737,187.67-77.414v-44.085
	c-41.689,1.325-82.153,10.173-120.437,26.366c-36.461,15.421-69.55,36.875-98.515,63.851L1089.479,324.864z"/>
<path fill="#F69679" d="M1277.149,834.307c-153.172-5.677-276.736-129.242-282.412-282.412H950.65
	c1.325,41.688,10.173,82.152,26.366,120.436c17.01,40.217,41.355,76.329,72.362,107.334c31.005,31.006,67.117,55.352,107.334,72.362
	c38.283,16.191,78.747,25.041,120.437,26.365V834.307z"/>
<path fill="#FFDE17" d="M994.737,529.864c2.709-73.109,32.275-139.47,79.096-189.489l-31.265-31.268
	c-27.776,29.395-49.808,63.098-65.552,100.317c-16.192,38.283-25.041,78.749-26.366,120.439H994.737z"/>
<line fill="none" stroke="#000000" stroke-width="15" stroke-miterlimit="10" x1="1035.234" y1="788.005" x2="925.787" y2="897.453"/>
<line fill="none" stroke="#000000" stroke-width="15" stroke-miterlimit="10" x1="964.435" y1="394.732" x2="858.729" y2="345.339"/>
<line fill="none" stroke="#000000" stroke-width="15" stroke-miterlimit="10" x1="1095.436" y1="116.16" x2="1141.642" y2="217.256"/>
<line fill="none" stroke="#000000" stroke-width="15" stroke-miterlimit="10" x1="1434.574" y1="217.256" x2="1466.75" y2="146.558"/>
<line fill="none" stroke="#000000" stroke-width="15" stroke-miterlimit="10" x1="1615.847" y1="405.646" x2="1697.249" y2="370.967"/>
<line fill="none" stroke="#000000" stroke-width="15" stroke-miterlimit="10" x1="1635.746" y1="610.394" x2="1692.908" y2="622.521"/>
<line fill="none" stroke="#000000" stroke-width="15" stroke-miterlimit="10" x1="1581.594" y1="739.681" x2="1697.249" y2="823.155"/>
<line fill="none" stroke="#000000" stroke-width="15" stroke-miterlimit="10" x1="1425.677" y1="867.61" x2="1466.75" y2="965.598"/>
</svg>
