<?xml version="1.0" encoding="utf-8"?>
<!-- Generator: Adobe Illustrator 15.0.0, SVG Export Plug-In . SVG Version: 6.00 Build 0)  -->
<!DOCTYPE svg PUBLIC "-//W3C//DTD SVG 1.1//EN" "http://www.w3.org/Graphics/SVG/1.1/DTD/svg11.dtd">
<svg version="1.1" xmlns="http://www.w3.org/2000/svg" xmlns:xlink="http://www.w3.org/1999/xlink" x="0px" y="0px" width="1025px"
	 height="1025px" viewBox="0 0 1025 1025" enable-background="new 0 0 1025 1025" xml:space="preserve">
<g id="Purple">
	<path opacity="0.35" fill="#4C629D" d="M793.235,700.675c0,0-268.054-200.856-610.345-112.851
		c-8.229-22.824-8.229-62.642-8.229-62.642S553.5,535.5,820.168,652.58C809.001,678.164,793.235,700.675,793.235,700.675z"/>
</g>
<g id="Light_Blue">
	<path opacity="0.35" fill="#86BAE4" d="M813.582,358.833c0,0-171.302,291.315-630.692,228.991
		c13.943,57.676,21.652,64.756,21.652,64.756s316.872-1.53,635.915-222.305C829.5,385.5,813.582,358.833,813.582,358.833z"/>
</g>
<g id="Rose">
	<path opacity="0.55" fill="#D3636B" d="M525.182,851.339c0,0,73.651-3.838,123.925-29.608c-17.606-44.23-142.666-391.324-275.334,0
		c70.395,29.608,126.045,28.607,126.045,28.607s-7.529-190.755,11.622-190.755S525.182,851.339,525.182,851.339z"/>
	<path opacity="0.5" fill="#D3636B" d="M736.993,765.074c0,0-179.446-223.574-552.452-334.799
		c-9.041,33.225-9.88,69.543-9.88,69.543s406.839,0,475.087,321.814C694.469,804.834,736.993,765.074,736.993,765.074z"/>
</g>
<g id="Orange">
	<path opacity="0.3" fill="#F69679" d="M373.772,820.729c0,0,63.269-391.763,381.529-73.216
		c22.375-23.376,38.866-46.014,38.866-46.014S522.411,455.09,288.01,765.074C328.581,801.828,373.772,820.729,373.772,820.729z"/>
	<path opacity="0.3" fill="#F69679" d="M235.182,705.657c0,0,370.103-172.42-50.641-275.382c14.959-57.541,19-54.99,19-54.99
		S579.5,467.5,288.01,765.074C256.498,737.744,235.182,705.657,235.182,705.657z"/>
</g>
<g id="Yellow">
	<path opacity="0.4" fill="#FFDE17" d="M203.542,375.285c0,0,252.286,89.308,646.797,124.533
		c-0.839-35.151-9.882-69.543-9.882-69.543S543.5,512.5,230.593,326.085C213.783,351.605,203.542,375.285,203.542,375.285z"/>
	<path opacity="0.4" fill="#FFDE17" d="M265.731,281.65c0,0,129.278,128.661,438.084-47.746
		c27.435,19.845,42.518,34.653,42.518,34.653s-122.313,108.899-515.74,57.527C239.669,312.539,239.834,310.833,265.731,281.65z"/>
	<path opacity="0.25" fill="#FFDE17" d="M275.5,338.768"/>
	<path opacity="0.25" fill="#FFDE17" d="M340.834,358.833"/>
</g>
<g id="Green_Blue">
	<path opacity="0.25" fill="#00B2C1" d="M283.743,263.792c0,0,246.388,268.518,420.072-29.887
		c-18.315-14.405-41.352-24.356-41.352-24.356s-154.36,324.172-318.662,10.062C295,245.65,283.743,263.792,283.743,263.792z"/>
	<path opacity="0.25" fill="#00B2C1" d="M612.143,189.417c0,0-109.953,283.306,217.702,439.695
		c10.612-29.143,14.666-51.016,14.666-51.016s-343.083-42.499-182.047-368.547C642.678,199.3,612.143,189.417,612.143,189.417z"/>
</g>
<g id="Dark_Blue">
	<path opacity="0.4" fill="#1C75BC" d="M813.582,358.833c0,0-171.404,167.032,36.757,166.349c0,26.649-5.828,52.913-5.828,52.913
		s-250.103-113.262-80.535-291.31C802.167,329.5,813.582,358.833,813.582,358.833z"/>
</g>
<g id="Green">
	<path opacity="0.6" fill="#D7DF23" d="M235.182,705.657c0,0,366.23-164.076,177.669-516.241
		c-43.52,13.251-69.049,30.194-69.049,30.194s275.036,297.203-139.259,432.97C222.291,689.337,235.182,705.657,235.182,705.657z"/>
	<path opacity="0.6" fill="#D7DF23" d="M499.818,174.662c0,0,16.349,295.504,25.364,0c50.651,1.672,86.961,14.755,86.961,14.755
		s-85.738,340.164-199.292,0C464.665,173.834,499.818,174.662,499.818,174.662z"/>
</g>
<g id="Outer_Circle">
	<g>
		<path fill="#86BAE4" d="M763.976,286.786c51.178,56.96,83.335,131.337,86.363,213.033h50.758
			c-1.526-48-11.714-94.589-30.356-138.666c-17.221-40.716-40.976-77.776-70.731-110.401L763.976,286.786z"/>
		<path fill="#1C75BC" d="M850.339,525.183c-1.348,36.392-8.478,71.333-20.494,103.929l46.267,21.354
			c15.234-40.086,23.613-82.113,24.985-125.282H850.339z"/>
		<path fill="#00B2C1" d="M525.182,174.662c85.635,3.174,163.229,38.353,221.151,93.896l35.988-35.989
			c-34.539-33.319-74.36-59.65-118.474-78.309c-44.077-18.643-90.666-28.831-138.666-30.356V174.662z"/>
		<path fill="#4F5C99" d="M820.168,652.58c-16.14,35.311-38.186,67.379-64.866,94.934l35.99,35.988
			c31.302-32.18,56.494-68.992,75.031-109.619L820.168,652.58z"/>
		<path fill="#D3636B" d="M736.993,765.074c-56.801,50.539-130.7,82.258-211.812,85.264v50.758
			c48-1.525,94.589-11.713,138.666-30.355c40.21-17.008,76.855-40.389,109.184-69.629L736.993,765.074z"/>
		<path fill="#D7DF23" d="M283.743,263.792c57.342-52.784,132.917-86.048,216.075-89.13v-50.757
			c-48,1.525-94.588,11.712-138.666,30.356c-41.978,17.755-80.073,42.454-113.425,73.515L283.743,263.792z"/>
		<path fill="#F69679" d="M499.818,850.338c-176.354-6.535-318.621-148.801-325.157-325.155h-50.757
			c1.525,47.999,11.712,94.587,30.356,138.665c19.584,46.303,47.615,87.881,83.314,123.578
			c35.699,35.699,77.276,63.73,123.578,83.314c44.078,18.643,90.666,28.83,138.666,30.355V850.338z"/>
		<path fill="#FFDE17" d="M174.661,499.818c3.12-84.173,37.161-160.578,91.07-218.168l-36-36
			c-31.979,33.845-57.346,72.648-75.472,115.502c-18.643,44.077-28.831,90.666-30.356,138.666H174.661z"/>
	</g>
</g>
<g id="Names__x28_Colored_x29_" display="none">
	
		<line display="inline" fill="none" stroke="#F69679" stroke-width="30" stroke-miterlimit="10" x1="221.29" y1="797.029" x2="95.278" y2="923.042"/>
	
		<line display="inline" fill="none" stroke="#FFDE17" stroke-width="30" stroke-miterlimit="10" x1="139.774" y1="344.234" x2="18.071" y2="287.366"/>
	<circle display="inline" fill="none" cx="512.5" cy="512.5" r="408.041"/>
	
		<line display="inline" fill="none" stroke="#D7DF23" stroke-width="30" stroke-miterlimit="10" x1="290.602" y1="23.501" x2="343.802" y2="139.898"/>
	
		<line display="inline" fill="none" stroke="#00B2C1" stroke-width="30" stroke-miterlimit="10" x1="681.067" y1="139.898" x2="718.114" y2="58.5"/>
	
		<line display="inline" fill="none" stroke="#86BAE4" stroke-width="30" stroke-miterlimit="10" x1="889.776" y1="356.801" x2="983.5" y2="316.873"/>
	
		<line display="inline" fill="none" stroke="#1C75BC" stroke-width="30" stroke-miterlimit="10" x1="912.687" y1="592.537" x2="978.5" y2="606.5"/>
	
		<line display="inline" fill="none" stroke="#4F5C99" stroke-width="30" stroke-miterlimit="10" x1="850.34" y1="741.391" x2="983.5" y2="837.5"/>
	
		<line display="inline" fill="none" stroke="#D3636B" stroke-width="30" stroke-miterlimit="10" x1="670.824" y1="888.685" x2="718.114" y2="1001.5"/>
</g>
<g id="Names__x28_Black_x29_">
	<line fill="none" stroke="#000000" stroke-width="15" stroke-miterlimit="10" x1="221.29" y1="797.029" x2="95.278" y2="923.042"/>
	
		<line fill="none" stroke="#000000" stroke-width="15" stroke-miterlimit="10" x1="139.774" y1="344.234" x2="18.071" y2="287.366"/>
	
		<line fill="none" stroke="#000000" stroke-width="15" stroke-miterlimit="10" x1="290.602" y1="23.501" x2="343.802" y2="139.898"/>
	<line fill="none" stroke="#000000" stroke-width="15" stroke-miterlimit="10" x1="681.067" y1="139.898" x2="718.114" y2="58.5"/>
	<line fill="none" stroke="#000000" stroke-width="15" stroke-miterlimit="10" x1="889.776" y1="356.801" x2="983.5" y2="316.873"/>
	<line fill="none" stroke="#000000" stroke-width="15" stroke-miterlimit="10" x1="912.687" y1="592.537" x2="978.5" y2="606.5"/>
	<line fill="none" stroke="#000000" stroke-width="15" stroke-miterlimit="10" x1="850.34" y1="741.391" x2="983.5" y2="837.5"/>
	
		<line fill="none" stroke="#000000" stroke-width="15" stroke-miterlimit="10" x1="670.824" y1="888.685" x2="718.114" y2="1001.5"/>
</g>
</svg>
