<?xml version="1.0" encoding="UTF-8" standalone="no"?>
<svg
   id="Ebene_1"
   data-name="Ebene 1"
   viewBox="0 0 467.43 445.16"
   version="1.1"
   sodipodi:docname="logo.svg"
   inkscape:version="1.4.2 (ebf0e94, 2025-05-08)"
   xmlns:inkscape="http://www.inkscape.org/namespaces/inkscape"
   xmlns:sodipodi="http://sodipodi.sourceforge.net/DTD/sodipodi-0.dtd"
   xmlns="http://www.w3.org/2000/svg"
   xmlns:svg="http://www.w3.org/2000/svg">
  <sodipodi:namedview
     id="namedview22"
     pagecolor="#ffffff"
     bordercolor="#000000"
     borderopacity="0.25"
     inkscape:showpageshadow="2"
     inkscape:pageopacity="0.0"
     inkscape:pagecheckerboard="0"
     inkscape:deskcolor="#d1d1d1"
     inkscape:zoom="1.8128313"
     inkscape:cx="233.88828"
     inkscape:cy="222.58"
     inkscape:window-width="1920"
     inkscape:window-height="1009"
     inkscape:window-x="-8"
     inkscape:window-y="-8"
     inkscape:window-maximized="1"
     inkscape:current-layer="Ebene_1" />
  <defs
     id="defs1">
    <style
       id="style1">
      .cls-1 {
        stroke-linejoin: round;
        stroke-width: 4.56px;
      }

      .cls-1, .cls-2 {
        fill: none;
        stroke: #6b4940;
        stroke-linecap: round;
      }

      .cls-2 {
        stroke-miterlimit: 10;
        stroke-width: 4.94px;
      }

      .cls-3 {
        fill: #ef7e19;
      }

      .cls-4 {
        fill: #6b4940;
      }

      .cls-5 {
        fill: #c4ca80;
      }
    </style>
  </defs>
  <path
     class="cls-5"
     d="M43.37,1.58c13.89,0,24.34,3.08,31.34,9.24,7,6.16,10.5,15.18,10.5,27.08s-3.5,20.85-10.5,27.03c-7,6.19-17.45,9.28-31.34,9.28h-19.58v29.21c0,5.47-2.37,8.21-7.1,8.21-2.53,0-4.37-.7-5.53-2.09-1.16-1.39-1.74-3.43-1.74-6.12V9.79c0-5.47,2.42-8.21,7.26-8.21h26.68ZM42.58,60.94c9.42,0,16.41-1.93,20.96-5.8,4.55-3.87,6.83-9.62,6.83-17.25s-2.28-13.38-6.83-17.25c-4.55-3.87-11.54-5.8-20.96-5.8h-18.79v46.1h18.79Z"
     id="path1" />
  <path
     class="cls-5"
     d="M187.18,98.67l-21.59-27.54c5.29-1.38,9.79-3.43,13.5-6.17,7.5-5.53,11.25-14.45,11.25-26.76s-3.8-21.63-11.41-27.63c-7.6-6-18.27-9-32.01-9h-27c-4.84,0-7.26,2.74-7.26,8.21v93.62c0,2.68.58,4.72,1.74,6.12,1.16,1.39,3,2.09,5.53,2.09,4.73,0,7.1-2.74,7.1-8.21v-30.15h19.89c.97,0,1.88-.05,2.81-.07l26.55,34.65c1.11,1.42,2.13,2.41,3.08,2.96.95.55,2.13.83,3.55.83s2.75-.33,3.83-.99c1.08-.66,1.89-1.49,2.45-2.49.55-1,.83-2,.83-3,0-1.11-.2-2.14-.59-3.12-.4-.97-1.14-2.09-2.25-3.35ZM127.03,14.84h20.37c9,0,15.93,1.88,20.8,5.64,4.87,3.76,7.3,9.41,7.3,16.93s-2.44,13.17-7.3,16.93c-4.87,3.76-11.8,5.64-20.8,5.64h-20.37V14.84Z"
     id="path2" />
  <path
     class="cls-5"
     d="M262.49,112.09c-10.37,0-19.34-2.33-26.92-6.99-7.58-4.66-13.38-11.21-17.41-19.66-4.03-8.45-6.04-18.25-6.04-29.4s2.01-21.04,6.04-29.48c4.03-8.45,9.83-14.98,17.41-19.61,7.58-4.63,16.55-6.95,26.92-6.95s19.44,2.32,27.08,6.95c7.63,4.63,13.47,11.17,17.52,19.61,4.05,8.45,6.08,18.27,6.08,29.48s-2.03,20.96-6.08,29.4c-4.05,8.45-9.89,15-17.52,19.66-7.63,4.66-16.66,6.99-27.08,6.99ZM262.49,98.51c7.52,0,13.96-1.75,19.3-5.25,5.34-3.5,9.38-8.45,12.12-14.84,2.74-6.39,4.11-13.85,4.11-22.38s-1.37-16.05-4.11-22.42c-2.74-6.37-6.76-11.3-12.08-14.8-5.32-3.5-11.76-5.25-19.34-5.25s-13.85,1.75-19.14,5.25c-5.29,3.5-9.31,8.43-12.08,14.8s-4.14,13.84-4.14,22.42,1.38,15.97,4.14,22.34c2.76,6.37,6.79,11.32,12.08,14.84,5.29,3.53,11.67,5.29,19.14,5.29Z"
     id="path3" />
  <path
     class="cls-3"
     d="M42.17,159.12c13.89,0,24.34,3.08,31.34,9.24,7,6.16,10.5,15.18,10.5,27.08s-3.5,20.85-10.5,27.03c-7,6.19-17.45,9.28-31.34,9.28h-19.58v29.21c0,5.47-2.37,8.21-7.1,8.21-2.53,0-4.37-.7-5.53-2.09-1.16-1.39-1.74-3.43-1.74-6.12v-93.62c0-5.47,2.42-8.21,7.26-8.21h26.68ZM41.38,218.48c9.42,0,16.41-1.93,20.96-5.8,4.55-3.87,6.83-9.62,6.83-17.25s-2.28-13.38-6.83-17.25c-4.55-3.87-11.54-5.8-20.96-5.8h-18.79v46.1h18.79Z"
     id="path4" />
  <path
     class="cls-3"
     d="M290.59,254.79c2.37,0,4.2.55,5.49,1.66,1.29,1.11,1.93,2.76,1.93,4.97s-.64,3.87-1.93,4.97c-1.29,1.11-3.12,1.66-5.49,1.66h-51.62c-2.47,0-4.3-.71-5.49-2.13-1.18-1.42-1.78-3.45-1.78-6.08v-93.62c0-2.68.59-4.72,1.78-6.12,1.18-1.39,3.01-2.09,5.49-2.09s4.3.7,5.49,2.09c1.18,1.4,1.78,3.43,1.78,6.12v88.57h44.36Z"
     id="path5" />
  <path
     class="cls-3"
     d="M374.03,254.79c2.37,0,4.2.55,5.49,1.66,1.29,1.11,1.93,2.76,1.93,4.97s-.64,3.87-1.93,4.97c-1.29,1.11-3.12,1.66-5.49,1.66h-51.62c-2.47,0-4.3-.71-5.49-2.13-1.18-1.42-1.78-3.45-1.78-6.08v-93.62c0-2.68.59-4.72,1.78-6.12,1.18-1.39,3.01-2.09,5.49-2.09s4.3.7,5.49,2.09c1.18,1.4,1.78,3.43,1.78,6.12v88.57h44.36Z"
     id="path6" />
  <path
     class="cls-4"
     d="M41.2,445.16c-5.74,0-10.93-.59-15.59-1.78s-8.79-2.8-12.39-4.85c-3.61-2.05-6.86-4.47-9.75-7.26-1.11-1.11-1.96-2.21-2.57-3.32-.61-1.11-.91-2.21-.91-3.31,0-2.26.6-4.01,1.82-5.25,1.21-1.24,2.71-1.86,4.5-1.86.89,0,1.71.13,2.45.4.74.26,1.5.71,2.29,1.34,4.1,3.84,8.49,6.83,13.14,8.96,4.66,2.13,10.38,3.2,17.17,3.2,5.84,0,10.71-.76,14.6-2.29,3.89-1.53,6.8-3.7,8.72-6.51,1.92-2.81,2.88-6.2,2.88-10.14,0-5.1-1.72-8.96-5.17-11.56-3.45-2.6-8.78-4.54-15.98-5.8l-15.47-2.68c-6.47-1.16-11.67-2.88-15.59-5.17-3.92-2.29-6.8-5.29-8.64-9-1.84-3.71-2.76-8.3-2.76-13.77,0-5.89,1.5-11.22,4.5-15.98,3-4.76,7.37-8.53,13.1-11.29,5.73-2.76,12.6-4.14,20.6-4.14,7.21,0,13.56,1.08,19.06,3.24,5.5,2.16,10.04,5.03,13.62,8.61.05.05.1.11.16.16.05.05.1.11.16.16,1.1,1.11,1.93,2.16,2.49,3.16.55,1,.83,2.11.83,3.32,0,1.53-.29,2.82-.87,3.87-.58,1.05-1.33,1.83-2.25,2.33-.92.5-1.88.75-2.88.75-2.16,0-3.79-.63-4.89-1.89-3-3-6.57-5.43-10.7-7.3-4.13-1.87-9.04-2.8-14.72-2.8-4.95,0-9.16.72-12.63,2.17-3.47,1.45-6.11,3.49-7.89,6.12-1.79,2.63-2.68,5.71-2.68,9.24,0,4.32,1.35,7.68,4.06,10.1,2.71,2.42,6.83,4.16,12.35,5.21l15.63,2.53c7,1.31,12.8,3.17,17.41,5.56,4.6,2.4,8.12,5.61,10.54,9.63,2.42,4.03,3.63,9.07,3.63,15.12,0,6.47-1.61,12.18-4.82,17.13-3.21,4.95-7.92,8.8-14.13,11.56-6.21,2.76-13.68,4.15-22.42,4.15Z"
     id="path7" />
  <path
     class="cls-4"
     d="M159.29,445.16c-10.37,0-19.34-2.33-26.92-6.99-7.58-4.66-13.38-11.21-17.41-19.66-4.03-8.45-6.04-18.25-6.04-29.4s2.01-21.04,6.04-29.48,9.83-14.98,17.41-19.61c7.58-4.63,16.55-6.95,26.92-6.95s19.44,2.32,27.07,6.95,13.47,11.17,17.52,19.61c4.05,8.45,6.08,18.27,6.08,29.48s-2.03,20.96-6.08,29.4c-4.05,8.45-9.89,15-17.52,19.66-7.63,4.66-16.65,6.99-27.07,6.99ZM159.29,431.59c7.52,0,13.96-1.75,19.3-5.25,5.34-3.5,9.38-8.45,12.12-14.84,2.74-6.39,4.11-13.85,4.11-22.38s-1.37-16.05-4.11-22.42c-2.74-6.37-6.76-11.3-12.08-14.8-5.32-3.5-11.76-5.25-19.34-5.25s-13.85,1.75-19.14,5.25c-5.29,3.5-9.31,8.43-12.08,14.8s-4.14,13.84-4.14,22.42,1.38,15.97,4.14,22.34c2.76,6.37,6.79,11.32,12.08,14.84,5.29,3.53,11.67,5.29,19.14,5.29Z"
     id="path8" />
  <path
     class="cls-4"
     d="M257.28,444.69c-2.47,0-4.3-.7-5.49-2.09s-1.78-3.43-1.78-6.12v-94.72c0-2.68.59-4.72,1.78-6.12,1.18-1.39,3.01-2.09,5.49-2.09s4.3.7,5.49,2.09c1.18,1.4,1.78,3.43,1.78,6.12v94.72c0,2.68-.59,4.72-1.78,6.12-1.18,1.39-3.01,2.09-5.49,2.09Z"
     id="path9" />
  <path
     class="cls-4"
     d="M374.03,430.32c2.37,0,4.2.55,5.49,1.66,1.29,1.11,1.93,2.76,1.93,4.97s-.64,3.87-1.93,4.97c-1.29,1.11-3.12,1.66-5.49,1.66h-51.62c-2.47,0-4.3-.71-5.49-2.13-1.18-1.42-1.78-3.45-1.78-6.08v-93.62c0-2.68.59-4.72,1.78-6.12,1.18-1.39,3.01-2.09,5.49-2.09s4.3.7,5.49,2.09c1.18,1.4,1.78,3.43,1.78,6.12v88.57h44.36Z"
     id="path10" />
  <g
     id="g21">
    <path
       class="cls-1"
       d="M410.45,386.91c-9.4,9.4-22.74,11.31-29.8,4.26-7.05-7.05-5.15-20.39,4.26-29.8,9.4-9.4,20.11-9.03,27.17-1.98s7.78,18.11-1.63,27.52Z"
       id="path11" />
    <path
       class="cls-1"
       d="M434.6,357.39c-6.71,6.71-19.17,5.12-22.23,2.06s-4.65-15.53,2.06-22.23c1.07-1.07,1.26-1.03,2.47-1.8,6.35-4.07,23.07,13.59,19.81,19.04-.82,1.38-.89,1.73-2.1,2.94Z"
       id="path12" />
    <line
       class="cls-1"
       x1="375.69"
       y1="396.01"
       x2="380.59"
       y2="391.11"
       id="line12" />
    <path
       class="cls-1"
       d="M411.46,341.15c1.58-2.14,2.69-3.73,2.89-5,.86-5.41-8.97-14.36-15.19-19.21-13.26-10.34-21.18-10.45-25.66-4.41-4.47,6.04-.81,17.85,9.92,25.8,10.74,7.96,23.07,9.51,27.54,3.48.17-.23.33-.45.49-.66"
       id="path13" />
    <path
       class="cls-1"
       d="M459.48,398.27c-6.04,4.47-17.85.81-25.8-9.92-7.96-10.74-9.51-23.07-3.48-27.54,2.47-1.83,4.26-3.16,5.66-3.38,5.41-.86,14.36,8.97,19.21,15.19,10.34,13.26,10.45,21.18,4.41,25.66Z"
       id="path14" />
    <polyline
       class="cls-1"
       points="420.83 306.09 424.09 312.62 418.03 318.68 421.64 334.66"
       id="polyline14" />
    <polyline
       class="cls-1"
       points="465.14 350.4 458.61 347.14 452.55 353.2 436.57 349.59"
       id="polyline15" />
    <polyline
       class="cls-1"
       points="388.99 341.89 378.38 352.49 371.97 352.49"
       id="polyline16" />
    <polyline
       class="cls-1"
       points="429.42 382.32 418.81 392.92 418.81 399.34"
       id="polyline17" />
    <path
       class="cls-1"
       d="M435.12,346.18c4.17,1.97,9.06,3.03,11.24.85,2.66-2.66,1.9-7.94-1.46-13.05,1.3-2.22,1.04-5.08-.82-6.94-1.86-1.86-4.71-2.12-6.94-.82-5.11-3.36-10.4-4.12-13.05-1.46-2.13,2.13-1.13,6.9.72,10.98"
       id="path17" />
    <path
       class="cls-1"
       d="M437.27,310.4s6.06,7.23.93,15.86c-5.13,8.63-8.98,13.65-8.98,13.65"
       id="path18" />
    <path
       class="cls-1"
       d="M461.68,334.58s-7.23-6.06-15.86-.93c-8.63,5.13-13.65,8.98-13.65,8.98"
       id="path19" />
    <line
       class="cls-1"
       x1="393.54"
       y1="355.54"
       x2="416.28"
       y2="378.28"
       id="line19" />
    <line
       class="cls-1"
       x1="384.32"
       y1="362.65"
       x2="409.16"
       y2="387.49"
       id="line20" />
    <line
       class="cls-1"
       x1="377.67"
       y1="373.03"
       x2="398.67"
       y2="394.02"
       id="line21" />
  </g>
  <path
     class="cls-2"
     d="M7.7,313.71s21.3-10.94,36.24-7.54c14.94,3.4,26.63,5.74,42.33,1.46,16.62-4.53,18.79,8.69,46.71,0,11.48-3.57,38.21.48,45.45,3.02,7.29,2.56,26.93-.48,34.75,0,7.83.48,20.45.09,28.27-3.21,7.83-3.3,12.81-3.86,20.99-3.11,8.18.76,24.56,9.28,40.64,1.78,22.66-10.58,26.44,2.27,51.6,1.97"
     id="path21" />
  <path
     class="cls-3"
     d="M202.91,208.08c4.38-3.68,5.94-9.99,3.5-15.36s-8.21-8.36-13.86-7.49c1.95-5.37.15-11.62-4.64-15.05-4.79-3.43-11.29-3.13-15.75.44-.99-5.63-5.68-10.14-11.55-10.72-5.86-.58-11.34,2.93-13.42,8.26-3.68-4.38-9.99-5.94-15.36-3.5-5.37,2.43-8.36,8.21-7.49,13.86-5.37-1.95-11.62-.15-15.05,4.64-3.43,4.79-3.13,11.29.44,15.75-5.63,1-10.14,5.68-10.72,11.55-.58,5.87,2.93,11.34,8.26,13.42-4.38,3.68-5.94,9.99-3.5,15.36,2.43,5.37,8.21,8.36,13.86,7.49-1.95,5.37-.15,11.62,4.64,15.06,4.79,3.43,11.29,3.13,15.75-.44.99,5.63,5.68,10.14,11.55,10.71.42.04.84.06,1.26.06,5.38,0,10.23-3.38,12.16-8.32,3.67,4.38,9.99,5.94,15.36,3.51,5.37-2.43,8.36-8.21,7.49-13.86,5.37,1.95,11.62.15,15.05-4.64,3.43-4.79,3.13-11.29-.44-15.75,5.63-1,10.14-5.68,10.72-11.55.58-5.87-2.93-11.34-8.26-13.42ZM165.1,259.01c-.49-1.09-1.71-5.22-4.32-20.77l-.45-2.69c-.39-2.36-.78-4.78-1.16-7.21.44-.14.87-.31,1.29-.5.42-.19.83-.4,1.23-.64,1.57,1.89,3.14,3.77,4.66,5.62l1.73,2.11c9.97,12.22,12.28,15.86,12.77,16.94,1.97,4.34.04,9.47-4.31,11.44-4.34,1.97-9.47.04-11.44-4.31ZM145.08,172.95c.49,1.09,1.71,5.22,4.32,20.77l.45,2.69c.39,2.36.78,4.78,1.16,7.21-.44.15-.87.31-1.29.5-.42.19-.83.4-1.23.64-1.57-1.89-3.14-3.77-4.65-5.62l-1.73-2.11c-9.96-12.21-12.28-15.86-12.77-16.94-1.97-4.34-.04-9.47,4.3-11.44,1.15-.52,2.36-.77,3.55-.77,3.29,0,6.44,1.89,7.89,5.08ZM185.36,173.73c1.88,1.34,3.12,3.34,3.49,5.62.38,2.28-.16,4.57-1.5,6.44-.62.87-3.18,3.58-13.3,12.04-.92.76-1.87,1.55-2.85,2.36-2.39,1.97-4.89,4.01-7.44,6.07-.69-.62-1.44-1.15-2.25-1.61,1.06-2.89,2.12-5.75,3.16-8.49l.56-1.47c5.44-14.28,7.39-18.01,8.07-18.96,1.34-1.88,3.34-3.12,5.62-3.49,2.28-.38,4.57.16,6.44,1.5ZM158.66,223.85c-2.1.95-4.45,1.03-6.61.22-2.16-.81-3.88-2.42-4.83-4.52-1.97-4.34-.04-9.47,4.31-11.44,1.15-.52,2.36-.77,3.55-.77,3.29,0,6.44,1.89,7.89,5.08,1.97,4.34.04,9.47-4.31,11.44ZM198.13,205.97c-1.08.49-5.22,1.71-20.77,4.32-.88.15-1.78.3-2.69.45-2.36.39-4.78.78-7.21,1.16-.14-.44-.31-.87-.5-1.29s-.4-.83-.64-1.23c1.89-1.58,3.77-3.14,5.62-4.66l2.11-1.73c12.21-9.96,15.86-12.28,16.94-12.77,2.1-.95,4.45-1.03,6.61-.22,2.16.81,3.88,2.42,4.83,4.52.95,2.1,1.03,4.45.22,6.61-.81,2.16-2.42,3.88-4.52,4.83ZM167.94,173.71c-.12,1.16-1.1,5.25-6.43,19.58l-.55,1.47c-1.03,2.75-2.11,5.59-3.22,8.47-.87-.18-1.76-.27-2.64-.27h-.11c-.56-3.23-1.1-6.42-1.59-9.47-.2-1.25-.4-2.47-.58-3.65-2.05-13.03-2.18-16.76-2.07-17.82.47-4.74,4.69-8.23,9.45-7.76,2.3.23,4.37,1.33,5.83,3.12,1.47,1.78,2.15,4.03,1.92,6.33ZM136.95,197.03c.76.92,1.55,1.87,2.36,2.84,1.97,2.39,4.01,4.89,6.07,7.44-.62.69-1.15,1.44-1.61,2.25-2.89-1.06-5.75-2.12-8.49-3.16l-1.47-.56c-14.29-5.44-18.01-7.39-18.96-8.07-1.88-1.34-3.12-3.34-3.49-5.62-.38-2.28.16-4.57,1.5-6.44,1.69-2.35,4.34-3.61,7.04-3.61,1.74,0,3.5.52,5.02,1.61.87.62,3.58,3.18,12.04,13.31ZM106.49,205.05c1.56-1.28,3.48-1.96,5.47-1.96.29,0,.57.01.86.04,1.16.11,5.25,1.1,19.58,6.43l1.47.55c2.75,1.03,5.59,2.11,8.47,3.22-.19.91-.28,1.83-.27,2.75-3.23.56-6.42,1.1-9.47,1.59-1.26.2-2.47.4-3.65.59-13.04,2.04-16.76,2.18-17.82,2.07-2.3-.23-4.37-1.33-5.83-3.12-1.46-1.78-2.15-4.03-1.92-6.33.23-2.3,1.33-4.37,3.12-5.84ZM112.06,225.99c1.08-.49,5.22-1.71,20.77-4.32l2.69-.45c2.36-.39,4.78-.78,7.21-1.16.14.44.31.87.5,1.29s.4.83.64,1.23c-1.89,1.57-3.77,3.14-5.62,4.65l-2.11,1.73c-12.21,9.96-15.86,12.28-16.94,12.77-4.34,1.97-9.47.04-11.44-4.31-.95-2.1-1.03-4.45-.22-6.61.81-2.16,2.42-3.88,4.52-4.83ZM122.83,246.17c.62-.87,3.18-3.59,13.3-12.04.92-.76,1.87-1.55,2.85-2.36,2.39-1.97,4.89-4.01,7.44-6.07.69.62,1.44,1.15,2.25,1.61-1.06,2.89-2.12,5.75-3.16,8.49l-.56,1.47c-5.44,14.29-7.39,18.01-8.07,18.96-2.78,3.87-8.19,4.77-12.06,1.99-1.88-1.34-3.12-3.34-3.49-5.62-.38-2.28.16-4.57,1.5-6.44ZM142.25,258.25c.12-1.16,1.1-5.25,6.43-19.58l.55-1.47c1.03-2.75,2.11-5.59,3.22-8.47.91.19,1.83.29,2.75.27.56,3.23,1.1,6.42,1.59,9.47.2,1.25.4,2.47.58,3.65,2.05,13.03,2.18,16.76,2.07,17.82-.47,4.74-4.71,8.22-9.45,7.76-4.74-.47-8.22-4.71-7.76-9.45ZM173.25,234.94c-.76-.92-1.55-1.87-2.36-2.85-1.97-2.39-4.01-4.89-6.07-7.44.61-.69,1.15-1.44,1.61-2.25,2.89,1.06,5.75,2.12,8.49,3.16l1.47.56c14.28,5.44,18.01,7.39,18.96,8.07,3.87,2.78,4.77,8.19,1.99,12.06-2.78,3.87-8.19,4.77-12.06,1.99-.87-.62-3.59-3.18-12.03-13.31ZM203.7,226.91c-1.79,1.47-4.03,2.15-6.33,1.92-1.16-.11-5.25-1.1-19.58-6.43l-1.47-.55c-2.75-1.03-5.59-2.11-8.47-3.22.19-.91.28-1.83.27-2.75,3.23-.56,6.42-1.1,9.47-1.59,1.25-.2,2.47-.4,3.65-.59,13.03-2.04,16.76-2.17,17.82-2.07,2.3.23,4.37,1.33,5.83,3.12,1.46,1.78,2.15,4.03,1.92,6.33-.23,2.3-1.33,4.37-3.12,5.83Z"
     id="path22" />
</svg>
