<?xml version="1.0" encoding="UTF-8" standalone="no"?>
<!DOCTYPE svg PUBLIC "-//W3C//DTD SVG 1.1//EN"
 "http://www.w3.org/Graphics/SVG/1.1/DTD/svg11.dtd">
<!-- Generated by graphviz version 2.43.0 (0)
 -->
<!-- Title: pairwise Pages: 1 -->
<svg width="571pt" height="131pt"
 viewBox="0.00 0.00 570.84 131.00" xmlns="http://www.w3.org/2000/svg" xmlns:xlink="http://www.w3.org/1999/xlink">
<g id="graph0" class="graph" transform="scale(1 1) rotate(0) translate(4 127)">
<title>pairwise</title>
<!-- a1 -->
<g id="node1" class="node">
<title>a1</title>
<ellipse fill="none" stroke="black" cx="101.39" cy="-18" rx="101.28" ry="18"/>
<text text-anchor="middle" x="101.39" y="-14.3" font-family="Times,serif" font-size="14.00">Collection Manager</text>
</g>
<!-- b1 -->
<g id="node2" class="node">
<title>b1</title>
<ellipse fill="none" stroke="black" cx="317.39" cy="-18" rx="40.09" ry="18"/>
<text text-anchor="middle" x="317.39" y="-14.3" font-family="Times,serif" font-size="14.00">Arctos</text>
</g>
<!-- a1&#45;&gt;b1 -->
<g id="edge1" class="edge">
<title>a1&#45;&gt;b1</title>
<path fill="none" stroke="black" d="M203.07,-18C225.13,-18 247.55,-18 266.62,-18"/>
<polygon fill="black" stroke="black" points="266.85,-21.5 276.85,-18 266.85,-14.5 266.85,-21.5"/>
<text text-anchor="middle" x="239.94" y="-24.8" font-family="Times,serif" font-size="14.00">uses (1)</text>
</g>
<!-- c1 -->
<g id="node3" class="node">
<title>c1</title>
<ellipse fill="none" stroke="black" cx="515.39" cy="-18" rx="47.39" ry="18"/>
<text text-anchor="middle" x="515.39" y="-14.3" font-family="Times,serif" font-size="14.00">VertNet</text>
</g>
<!-- b1&#45;&gt;c1 -->
<g id="edge2" class="edge">
<title>b1&#45;&gt;c1</title>
<path fill="none" stroke="black" d="M357.94,-18C386.73,-18 425.79,-18 457.81,-18"/>
<polygon fill="black" stroke="black" points="457.93,-21.5 467.93,-18 457.93,-14.5 457.93,-21.5"/>
<text text-anchor="middle" x="412.82" y="-24.8" font-family="Times,serif" font-size="14.00">publishes (2)</text>
</g>
<!-- d1 -->
<g id="node4" class="node">
<title>d1</title>
<ellipse fill="none" stroke="black" cx="416.39" cy="-105" rx="36.29" ry="18"/>
<text text-anchor="middle" x="416.39" y="-101.3" font-family="Times,serif" font-size="14.00">GloBI</text>
</g>
<!-- d1&#45;&gt;b1 -->
<g id="edge4" class="edge">
<title>d1&#45;&gt;b1</title>
<path fill="none" stroke="black" d="M391.09,-82.28C376.36,-69.63 357.85,-53.73 343.06,-41.04"/>
<polygon fill="black" stroke="black" points="388.82,-84.94 398.69,-88.8 393.38,-79.63 388.82,-84.94"/>
<polygon fill="black" stroke="black" points="345.14,-38.21 335.27,-34.35 340.58,-43.52 345.14,-38.21"/>
<text text-anchor="middle" x="411.89" y="-57.8" font-family="Times,serif" font-size="14.00">links to (4)</text>
</g>
<!-- d1&#45;&gt;c1 -->
<g id="edge3" class="edge">
<title>d1&#45;&gt;c1</title>
<path fill="none" stroke="black" d="M442.11,-81.92C456.68,-69.4 474.87,-53.79 489.47,-41.25"/>
<polygon fill="black" stroke="black" points="439.4,-79.63 434.09,-88.8 443.96,-84.94 439.4,-79.63"/>
<polygon fill="black" stroke="black" points="491.87,-43.81 497.18,-34.64 487.31,-38.5 491.87,-43.81"/>
<text text-anchor="middle" x="510.89" y="-57.8" font-family="Times,serif" font-size="14.00">indexes (3)</text>
</g>
</g>
</svg>
