<?xml version="1.0" encoding="UTF-8" standalone="no"?>
<!DOCTYPE svg PUBLIC "-//W3C//DTD SVG 1.1//EN"
 "http://www.w3.org/Graphics/SVG/1.1/DTD/svg11.dtd">
<!-- Generated by graphviz version 2.40.1 (20161225.0304)
 -->
<!-- Title: pairwise Pages: 1 -->
<svg width="466pt" height="131pt"
 viewBox="0.00 0.00 466.24 131.00" xmlns="http://www.w3.org/2000/svg" xmlns:xlink="http://www.w3.org/1999/xlink">
<g id="graph0" class="graph" transform="scale(1 1) rotate(0) translate(4 127)">
<title>pairwise</title>
<polygon fill="#ffffff" stroke="transparent" points="-4,4 -4,-127 462.2393,-127 462.2393,4 -4,4"/>
<!-- a1 -->
<g id="node1" class="node">
<title>a1</title>
<ellipse fill="none" stroke="#000000" cx="81.2428" cy="-18" rx="81.4863" ry="18"/>
<text text-anchor="middle" x="81.2428" y="-14.3" font-family="Times,serif" font-size="14.00" fill="#000000">Collection Manager</text>
</g>
<!-- b1 -->
<g id="node2" class="node">
<title>b1</title>
<ellipse fill="none" stroke="#000000" cx="257.2428" cy="-18" rx="34.394" ry="18"/>
<text text-anchor="middle" x="257.2428" y="-14.3" font-family="Times,serif" font-size="14.00" fill="#000000">Arctos</text>
</g>
<!-- a1&#45;&gt;b1 -->
<g id="edge1" class="edge">
<title>a1&#45;&gt;b1</title>
<path fill="none" stroke="#000000" d="M162.5454,-18C179.6697,-18 197.1342,-18 212.3249,-18"/>
<polygon fill="#000000" stroke="#000000" points="212.4463,-21.5001 222.4462,-18 212.4462,-14.5001 212.4463,-21.5001"/>
<text text-anchor="middle" x="192.6407" y="-24.8" font-family="Times,serif" font-size="14.00" fill="#000000">uses (1)</text>
</g>
<!-- c1 -->
<g id="node3" class="node">
<title>c1</title>
<ellipse fill="none" stroke="#000000" cx="419.2428" cy="-18" rx="38.9931" ry="18"/>
<text text-anchor="middle" x="419.2428" y="-14.3" font-family="Times,serif" font-size="14.00" fill="#000000">VertNet</text>
</g>
<!-- b1&#45;&gt;c1 -->
<g id="edge2" class="edge">
<title>b1&#45;&gt;c1</title>
<path fill="none" stroke="#000000" d="M291.9959,-18C314.7119,-18 344.7258,-18 369.899,-18"/>
<polygon fill="#000000" stroke="#000000" points="369.9965,-21.5001 379.9964,-18 369.9964,-14.5001 369.9965,-21.5001"/>
<text text-anchor="middle" x="335.968" y="-24.8" font-family="Times,serif" font-size="14.00" fill="#000000">publishes (2)</text>
</g>
<!-- d1 -->
<g id="node4" class="node">
<title>d1</title>
<ellipse fill="none" stroke="#000000" cx="338.2428" cy="-105" rx="32.4942" ry="18"/>
<text text-anchor="middle" x="338.2428" y="-101.3" font-family="Times,serif" font-size="14.00" fill="#000000">GloBI</text>
</g>
<!-- d1&#45;&gt;b1 -->
<g id="edge4" class="edge">
<title>d1&#45;&gt;b1</title>
<path fill="none" stroke="#000000" d="M323.0073,-88.636C310.6754,-75.3906 293.1402,-56.5564 279.2775,-41.6669"/>
<polygon fill="#000000" stroke="#000000" points="281.7858,-39.2246 272.41,-34.2907 276.6625,-43.9946 281.7858,-39.2246"/>
<text text-anchor="middle" x="333.7428" y="-57.8" font-family="Times,serif" font-size="14.00" fill="#000000">links to (4)</text>
</g>
<!-- d1&#45;&gt;c1 -->
<g id="edge3" class="edge">
<title>d1&#45;&gt;c1</title>
<path fill="none" stroke="#000000" d="M353.4783,-88.636C365.7321,-75.4744 383.1237,-56.7946 396.9445,-41.9501"/>
<polygon fill="#000000" stroke="#000000" points="399.5477,-44.2904 403.8002,-34.5865 394.4244,-39.5204 399.5477,-44.2904"/>
<text text-anchor="middle" x="413.7428" y="-57.8" font-family="Times,serif" font-size="14.00" fill="#000000">indexes (3)</text>
</g>
</g>
</svg>
