<?xml version="1.0" encoding="UTF-8" standalone="no"?>
<!DOCTYPE svg PUBLIC "-//W3C//DTD SVG 1.1//EN"
 "http://www.w3.org/Graphics/SVG/1.1/DTD/svg11.dtd">
<!-- Generated by graphviz version 2.40.1 (20161225.0304)
 -->
<!-- Title: pairwise Pages: 1 -->
<svg width="836pt" height="131pt"
 viewBox="0.00 0.00 836.13 131.00" xmlns="http://www.w3.org/2000/svg" xmlns:xlink="http://www.w3.org/1999/xlink">
<g id="graph0" class="graph" transform="scale(1 1) rotate(0) translate(4 127)">
<title>pairwise</title>
<polygon fill="#ffffff" stroke="transparent" points="-4,4 -4,-127 832.1321,-127 832.1321,4 -4,4"/>
<!-- a1 -->
<g id="node1" class="node">
<title>a1</title>
<ellipse fill="none" stroke="#000000" cx="81.2428" cy="-18" rx="81.4863" ry="18"/>
<text text-anchor="middle" x="81.2428" y="-14.3" font-family="Times,serif" font-size="14.00" fill="#000000">Collection Manager</text>
</g>
<!-- b1 -->
<g id="node2" class="node">
<title>b1</title>
<ellipse fill="none" stroke="#000000" cx="260.2428" cy="-18" rx="37.8943" ry="18"/>
<text text-anchor="middle" x="260.2428" y="-14.3" font-family="Times,serif" font-size="14.00" fill="#000000">Specify</text>
</g>
<!-- a1&#45;&gt;b1 -->
<g id="edge1" class="edge">
<title>a1&#45;&gt;b1</title>
<path fill="none" stroke="#000000" d="M162.6243,-18C179.5829,-18 196.9335,-18 212.2136,-18"/>
<polygon fill="#000000" stroke="#000000" points="212.4311,-21.5001 222.4311,-18 212.431,-14.5001 212.4311,-21.5001"/>
<text text-anchor="middle" x="192.5159" y="-24.8" font-family="Times,serif" font-size="14.00" fill="#000000">uses (1)</text>
</g>
<!-- c1 -->
<g id="node3" class="node">
<title>c1</title>
<ellipse fill="none" stroke="#000000" cx="469.2428" cy="-18" rx="98.5829" ry="18"/>
<text text-anchor="middle" x="469.2428" y="-14.3" font-family="Times,serif" font-size="14.00" fill="#000000">full_database_export.csv</text>
</g>
<!-- b1&#45;&gt;c1 -->
<g id="edge2" class="edge">
<title>b1&#45;&gt;c1</title>
<path fill="none" stroke="#000000" d="M298.0911,-18C315.7388,-18 337.7391,-18 360.0261,-18"/>
<polygon fill="#000000" stroke="#000000" points="360.2716,-21.5001 370.2716,-18 360.2715,-14.5001 360.2716,-21.5001"/>
<text text-anchor="middle" x="334.1955" y="-24.8" font-family="Times,serif" font-size="14.00" fill="#000000">export (2)</text>
</g>
<!-- d1 -->
<g id="node4" class="node">
<title>d1</title>
<ellipse fill="none" stroke="#000000" cx="588.2428" cy="-105" rx="32.4942" ry="18"/>
<text text-anchor="middle" x="588.2428" y="-101.3" font-family="Times,serif" font-size="14.00" fill="#000000">GloBI</text>
</g>
<!-- d1&#45;&gt;c1 -->
<g id="edge3" class="edge">
<title>d1&#45;&gt;c1</title>
<path fill="none" stroke="#000000" d="M568.5924,-90.6337C550.4095,-77.3404 523.0378,-57.3292 501.626,-41.6752"/>
<polygon fill="#000000" stroke="#000000" points="503.5881,-38.774 493.4497,-35.6975 499.4567,-44.4248 503.5881,-38.774"/>
<text text-anchor="middle" x="566.7428" y="-57.8" font-family="Times,serif" font-size="14.00" fill="#000000">indexes (3)</text>
</g>
<!-- e1 -->
<g id="node5" class="node">
<title>e1</title>
<ellipse fill="none" stroke="#000000" cx="707.2428" cy="-18" rx="120.7786" ry="18"/>
<text text-anchor="middle" x="707.2428" y="-14.3" font-family="Times,serif" font-size="14.00" fill="#000000">GBIF Collection Landing Page</text>
</g>
<!-- d1&#45;&gt;e1 -->
<g id="edge4" class="edge">
<title>d1&#45;&gt;e1</title>
<path fill="none" stroke="#000000" d="M607.8932,-90.6337C626.076,-77.3404 653.4477,-57.3292 674.8595,-41.6752"/>
<polygon fill="#000000" stroke="#000000" points="677.0289,-44.4248 683.0359,-35.6975 672.8975,-38.774 677.0289,-44.4248"/>
<text text-anchor="middle" x="684.7428" y="-57.8" font-family="Times,serif" font-size="14.00" fill="#000000">links to (4)</text>
</g>
</g>
</svg>
