<?xml version="1.0" encoding="UTF-8" standalone="no"?>
<!DOCTYPE svg PUBLIC "-//W3C//DTD SVG 1.1//EN"
 "http://www.w3.org/Graphics/SVG/1.1/DTD/svg11.dtd">
<!-- Generated by graphviz version 2.40.1 (20161225.0304)
 -->
<!-- Title: pairwise Pages: 1 -->
<svg width="638pt" height="131pt"
 viewBox="0.00 0.00 638.24 131.00" xmlns="http://www.w3.org/2000/svg" xmlns:xlink="http://www.w3.org/1999/xlink">
<g id="graph0" class="graph" transform="scale(1 1) rotate(0) translate(4 127)">
<title>pairwise</title>
<polygon fill="#ffffff" stroke="transparent" points="-4,4 -4,-127 634.2428,-127 634.2428,4 -4,4"/>
<!-- a1 -->
<g id="node1" class="node">
<title>a1</title>
<ellipse fill="none" stroke="#000000" cx="81.2428" cy="-18" rx="81.4863" ry="18"/>
<text text-anchor="middle" x="81.2428" y="-14.3" font-family="Times,serif" font-size="14.00" fill="#000000">Collection Manager</text>
</g>
<!-- b1 -->
<g id="node2" class="node">
<title>b1</title>
<ellipse fill="none" stroke="#000000" cx="253.2428" cy="-18" rx="30.5947" ry="18"/>
<text text-anchor="middle" x="253.2428" y="-14.3" font-family="Times,serif" font-size="14.00" fill="#000000">Excel</text>
</g>
<!-- a1&#45;&gt;b1 -->
<g id="edge1" class="edge">
<title>a1&#45;&gt;b1</title>
<path fill="none" stroke="#000000" d="M162.7095,-18C179.8977,-18 197.328,-18 212.2439,-18"/>
<polygon fill="#000000" stroke="#000000" points="212.6212,-21.5001 222.6212,-18 212.6212,-14.5001 212.6212,-21.5001"/>
<text text-anchor="middle" x="192.5905" y="-24.8" font-family="Times,serif" font-size="14.00" fill="#000000">uses (1)</text>
</g>
<!-- c1 -->
<g id="node3" class="node">
<title>c1</title>
<ellipse fill="none" stroke="#000000" cx="400.2428" cy="-18" rx="42.4939" ry="18"/>
<text text-anchor="middle" x="400.2428" y="-14.3" font-family="Times,serif" font-size="14.00" fill="#000000">Specify6</text>
</g>
<!-- b1&#45;&gt;c1 -->
<g id="edge2" class="edge">
<title>b1&#45;&gt;c1</title>
<path fill="none" stroke="#000000" d="M284.0588,-18C302.4358,-18 326.2608,-18 347.5483,-18"/>
<polygon fill="#000000" stroke="#000000" points="347.7598,-21.5001 357.7598,-18 347.7597,-14.5001 347.7598,-21.5001"/>
<text text-anchor="middle" x="320.8933" y="-24.8" font-family="Times,serif" font-size="14.00" fill="#000000">upload (2)</text>
</g>
<!-- d1 -->
<g id="node4" class="node">
<title>d1</title>
<ellipse fill="none" stroke="#000000" cx="549.2428" cy="-18" rx="34.394" ry="18"/>
<text text-anchor="middle" x="549.2428" y="-14.3" font-family="Times,serif" font-size="14.00" fill="#000000">SCAN</text>
</g>
<!-- c1&#45;&gt;d1 -->
<g id="edge3" class="edge">
<title>c1&#45;&gt;d1</title>
<path fill="none" stroke="#000000" d="M442.5417,-18C461.7951,-18 484.6016,-18 504.1773,-18"/>
<polygon fill="#000000" stroke="#000000" points="504.3795,-21.5001 514.3795,-18 504.3794,-14.5001 504.3795,-21.5001"/>
<text text-anchor="middle" x="478.6424" y="-24.8" font-family="Times,serif" font-size="14.00" fill="#000000">export (3)</text>
</g>
<!-- e1 -->
<g id="node5" class="node">
<title>e1</title>
<ellipse fill="none" stroke="#000000" cx="549.2428" cy="-105" rx="32.4942" ry="18"/>
<text text-anchor="middle" x="549.2428" y="-101.3" font-family="Times,serif" font-size="14.00" fill="#000000">GloBI</text>
</g>
<!-- e1&#45;&gt;d1 -->
<g id="edge4" class="edge">
<title>e1&#45;&gt;d1</title>
<path fill="none" stroke="#000000" d="M527.3419,-91.4885C519.8343,-85.5987 512.3058,-77.9746 508.2428,-69 503.2147,-57.8938 509.6066,-47.1371 518.7277,-38.3885"/>
<polygon fill="#000000" stroke="#000000" points="521.0954,-40.9697 526.4617,-31.8344 516.5698,-35.6294 521.0954,-40.9697"/>
<text text-anchor="middle" x="538.7428" y="-57.8" font-family="Times,serif" font-size="14.00" fill="#000000">indexes (4)</text>
</g>
<!-- e1&#45;&gt;d1 -->
<g id="edge5" class="edge">
<title>e1&#45;&gt;d1</title>
<path fill="none" stroke="#000000" d="M560.897,-88.1769C564.2782,-82.3679 567.5211,-75.6443 569.2428,-69 571.3798,-60.7529 569.5725,-52.0329 566.3195,-44.1808"/>
<polygon fill="#000000" stroke="#000000" points="569.3976,-42.5103 561.8026,-35.1234 563.1334,-45.6343 569.3976,-42.5103"/>
<text text-anchor="middle" x="599.7428" y="-57.8" font-family="Times,serif" font-size="14.00" fill="#000000">links to (5)</text>
</g>
</g>
</svg>
