<?xml version="1.0" encoding="UTF-8" standalone="no"?>
<!DOCTYPE svg PUBLIC "-//W3C//DTD SVG 1.1//EN"
 "http://www.w3.org/Graphics/SVG/1.1/DTD/svg11.dtd">
<!-- Generated by graphviz version 2.40.1 (20161225.0304)
 -->
<!-- Title: pairwise Pages: 1 -->
<svg width="601pt" height="131pt"
 viewBox="0.00 0.00 601.24 131.00" xmlns="http://www.w3.org/2000/svg" xmlns:xlink="http://www.w3.org/1999/xlink">
<g id="graph0" class="graph" transform="scale(1 1) rotate(0) translate(4 127)">
<title>pairwise</title>
<polygon fill="#ffffff" stroke="transparent" points="-4,4 -4,-127 597.2428,-127 597.2428,4 -4,4"/>
<!-- a1 -->
<g id="node1" class="node">
<title>a1</title>
<ellipse fill="none" stroke="#000000" cx="81.2428" cy="-18" rx="81.4863" ry="18"/>
<text text-anchor="middle" x="81.2428" y="-14.3" font-family="Times,serif" font-size="14.00" fill="#000000">Collection Manager</text>
</g>
<!-- b1 -->
<g id="node2" class="node">
<title>b1</title>
<ellipse fill="none" stroke="#000000" cx="289.2428" cy="-18" rx="66.0889" ry="18"/>
<text text-anchor="middle" x="289.2428" y="-14.3" font-family="Times,serif" font-size="14.00" fill="#000000">Symbiota CMS</text>
</g>
<!-- a1&#45;&gt;b1 -->
<g id="edge1" class="edge">
<title>a1&#45;&gt;b1</title>
<path fill="none" stroke="#000000" d="M162.5547,-18C179.0673,-18 196.382,-18 212.7219,-18"/>
<polygon fill="#000000" stroke="#000000" points="212.7539,-21.5001 222.7538,-18 212.7538,-14.5001 212.7539,-21.5001"/>
<text text-anchor="middle" x="192.7171" y="-24.8" font-family="Times,serif" font-size="14.00" fill="#000000">uses (1)</text>
</g>
<!-- c1 -->
<g id="node3" class="node">
<title>c1</title>
<ellipse fill="none" stroke="#000000" cx="512.2428" cy="-18" rx="68.4888" ry="18"/>
<text text-anchor="middle" x="512.2428" y="-14.3" font-family="Times,serif" font-size="14.00" fill="#000000">Symbiota Portal</text>
</g>
<!-- b1&#45;&gt;c1 -->
<g id="edge2" class="edge">
<title>b1&#45;&gt;c1</title>
<path fill="none" stroke="#000000" d="M355.5464,-18C380.1416,-18 408.2686,-18 433.8412,-18"/>
<polygon fill="#000000" stroke="#000000" points="433.8758,-21.5001 443.8757,-18 433.8757,-14.5001 433.8758,-21.5001"/>
<text text-anchor="middle" x="399.7679" y="-24.8" font-family="Times,serif" font-size="14.00" fill="#000000">publishes (2)</text>
</g>
<!-- d1 -->
<g id="node4" class="node">
<title>d1</title>
<ellipse fill="none" stroke="#000000" cx="512.2428" cy="-105" rx="32.4942" ry="18"/>
<text text-anchor="middle" x="512.2428" y="-101.3" font-family="Times,serif" font-size="14.00" fill="#000000">GloBI</text>
</g>
<!-- d1&#45;&gt;c1 -->
<g id="edge3" class="edge">
<title>d1&#45;&gt;c1</title>
<path fill="none" stroke="#000000" d="M490.3419,-91.4885C482.8343,-85.5987 475.3058,-77.9746 471.2428,-69 466.8304,-59.2538 471.2124,-49.7767 478.5157,-41.6896"/>
<polygon fill="#000000" stroke="#000000" points="481.0444,-44.1148 485.8756,-34.6856 476.2187,-39.044 481.0444,-44.1148"/>
<text text-anchor="middle" x="501.7428" y="-57.8" font-family="Times,serif" font-size="14.00" fill="#000000">indexes (3)</text>
</g>
<!-- d1&#45;&gt;c1 -->
<g id="edge4" class="edge">
<title>d1&#45;&gt;c1</title>
<path fill="none" stroke="#000000" d="M523.897,-88.1769C527.2782,-82.3679 530.5211,-75.6443 532.2428,-69 534.2892,-61.1025 532.7186,-52.7713 529.7252,-45.1838"/>
<polygon fill="#000000" stroke="#000000" points="532.8256,-43.5549 525.3377,-36.0594 526.517,-46.5884 532.8256,-43.5549"/>
<text text-anchor="middle" x="562.7428" y="-57.8" font-family="Times,serif" font-size="14.00" fill="#000000">links to (4)</text>
</g>
</g>
</svg>
