<?xml version="1.0" encoding="UTF-8" standalone="no"?>
<!DOCTYPE svg PUBLIC "-//W3C//DTD SVG 1.1//EN"
 "http://www.w3.org/Graphics/SVG/1.1/DTD/svg11.dtd">
<!-- Generated by graphviz version 2.40.1 (20161225.0304)
 -->
<!-- Title: pairwise Pages: 1 -->
<svg width="599pt" height="131pt"
 viewBox="0.00 0.00 599.24 131.00" xmlns="http://www.w3.org/2000/svg" xmlns:xlink="http://www.w3.org/1999/xlink">
<g id="graph0" class="graph" transform="scale(1 1) rotate(0) translate(4 127)">
<title>pairwise</title>
<polygon fill="#ffffff" stroke="transparent" points="-4,4 -4,-127 595.2428,-127 595.2428,4 -4,4"/>
<!-- a1 -->
<g id="node1" class="node">
<title>a1</title>
<ellipse fill="none" stroke="#000000" cx="81.2428" cy="-18" rx="81.4863" ry="18"/>
<text text-anchor="middle" x="81.2428" y="-14.3" font-family="Times,serif" font-size="14.00" fill="#000000">Collection Manager</text>
</g>
<!-- b1 -->
<g id="node2" class="node">
<title>b1</title>
<ellipse fill="none" stroke="#000000" cx="313.2428" cy="-18" rx="90.1842" ry="18"/>
<text text-anchor="middle" x="313.2428" y="-14.3" font-family="Times,serif" font-size="14.00" fill="#000000">TAMUIC SQL Server</text>
</g>
<!-- a1&#45;&gt;b1 -->
<g id="edge1" class="edge">
<title>a1&#45;&gt;b1</title>
<path fill="none" stroke="#000000" d="M162.7111,-18C178.8214,-18 195.9095,-18 212.5683,-18"/>
<polygon fill="#000000" stroke="#000000" points="212.8728,-21.5001 222.8728,-18 212.8727,-14.5001 212.8728,-21.5001"/>
<text text-anchor="middle" x="192.6932" y="-24.8" font-family="Times,serif" font-size="14.00" fill="#000000">uses (1)</text>
</g>
<!-- c1 -->
<g id="node3" class="node">
<title>c1</title>
<ellipse fill="none" stroke="#000000" cx="510.2428" cy="-18" rx="34.394" ry="18"/>
<text text-anchor="middle" x="510.2428" y="-14.3" font-family="Times,serif" font-size="14.00" fill="#000000">SCAN</text>
</g>
<!-- b1&#45;&gt;c1 -->
<g id="edge2" class="edge">
<title>b1&#45;&gt;c1</title>
<path fill="none" stroke="#000000" d="M403.6708,-18C425.0779,-18 446.9969,-18 465.3469,-18"/>
<polygon fill="#000000" stroke="#000000" points="465.4272,-21.5001 475.4271,-18 465.4271,-14.5001 465.4272,-21.5001"/>
<text text-anchor="middle" x="439.6903" y="-24.8" font-family="Times,serif" font-size="14.00" fill="#000000">export (2)</text>
</g>
<!-- d1 -->
<g id="node4" class="node">
<title>d1</title>
<ellipse fill="none" stroke="#000000" cx="510.2428" cy="-105" rx="32.4942" ry="18"/>
<text text-anchor="middle" x="510.2428" y="-101.3" font-family="Times,serif" font-size="14.00" fill="#000000">GloBI</text>
</g>
<!-- d1&#45;&gt;c1 -->
<g id="edge3" class="edge">
<title>d1&#45;&gt;c1</title>
<path fill="none" stroke="#000000" d="M488.3419,-91.4885C480.8343,-85.5987 473.3058,-77.9746 469.2428,-69 464.2147,-57.8938 470.6066,-47.1371 479.7277,-38.3885"/>
<polygon fill="#000000" stroke="#000000" points="482.0954,-40.9697 487.4617,-31.8344 477.5698,-35.6294 482.0954,-40.9697"/>
<text text-anchor="middle" x="499.7428" y="-57.8" font-family="Times,serif" font-size="14.00" fill="#000000">indexes (3)</text>
</g>
<!-- d1&#45;&gt;c1 -->
<g id="edge4" class="edge">
<title>d1&#45;&gt;c1</title>
<path fill="none" stroke="#000000" d="M521.897,-88.1769C525.2782,-82.3679 528.5211,-75.6443 530.2428,-69 532.3798,-60.7529 530.5725,-52.0329 527.3195,-44.1808"/>
<polygon fill="#000000" stroke="#000000" points="530.3976,-42.5103 522.8026,-35.1234 524.1334,-45.6343 530.3976,-42.5103"/>
<text text-anchor="middle" x="560.7428" y="-57.8" font-family="Times,serif" font-size="14.00" fill="#000000">links to (4)</text>
</g>
</g>
</svg>
